<svg xmlns="http://www.w3.org/2000/svg" viewBox="0 0 687 214" width="687" height="214">
	<defs>
		<clipPath clipPathUnits="userSpaceOnUse" id="cp1">
			<path d="M-201 -436L879 -436L879 644L-201 644L-201 -436Z" />
		</clipPath>
	</defs>
	<style>
		tspan { white-space:pre }
		.shp0 { fill: #23b572 } 
		.shp1 { fill: #3356a6 } 
	</style>
	<g id="Clip-Path" clip-path="url(#cp1)">
		<g id="Layer">
			<path id="Layer" fill-rule="evenodd" class="shp0" d="M295.52 40.23L278.35 40.23C277.79 42.12 277.19 44.09 276.55 46.13C275.92 48.18 275.39 49.86 274.98 51.2C274.85 51.25 274.71 51.3 274.58 51.35C274.44 51.4 274.3 51.44 274.17 51.49C274.03 51.53 273.89 51.58 273.75 51.62C273.61 51.66 273.47 51.7 273.33 51.73C273.15 51.77 272.97 51.81 272.79 51.84C272.61 51.87 272.43 51.9 272.25 51.92C272.07 51.93 271.88 51.95 271.7 51.96C271.52 51.96 271.33 51.97 271.15 51.96C270.8 51.98 270.44 51.98 270.09 51.94C269.73 51.91 269.38 51.85 269.04 51.76C268.69 51.67 268.36 51.56 268.03 51.42C267.7 51.28 267.39 51.11 267.09 50.93C266.85 50.76 266.64 50.57 266.45 50.35C266.26 50.14 266.11 49.9 265.98 49.64C265.85 49.38 265.76 49.11 265.7 48.83C265.64 48.55 265.62 48.26 265.63 47.98C265.63 47.82 265.64 47.67 265.65 47.52C265.66 47.37 265.68 47.22 265.7 47.07C265.72 46.92 265.75 46.77 265.78 46.62C265.82 46.47 265.86 46.32 265.9 46.18C266.08 45.59 266.3 44.91 266.55 44.15C266.96 42.72 267.51 40.99 268.2 38.97C268.89 36.95 269.63 34.76 270.42 32.38C271.21 30.01 272.07 27.55 272.99 25.03C273.91 22.5 274.79 20.04 275.64 17.66C276.48 15.28 277.29 13.06 278.08 11C278.87 8.93 279.55 7.15 280.12 5.67C280.35 5.55 280.59 5.44 280.83 5.34C281.07 5.24 281.32 5.14 281.56 5.05C281.81 4.96 282.06 4.88 282.31 4.81C282.56 4.73 282.81 4.66 283.07 4.6C283.39 4.51 283.71 4.43 284.04 4.36C284.36 4.3 284.69 4.24 285.02 4.2C285.35 4.15 285.68 4.12 286.01 4.09C286.35 4.07 286.68 4.06 287.01 4.06C287.43 4.05 287.84 4.07 288.26 4.1C288.67 4.13 289.09 4.18 289.5 4.25C289.91 4.31 290.32 4.4 290.72 4.5C291.12 4.6 291.52 4.72 291.91 4.86C292.23 4.95 292.54 5.08 292.83 5.24C293.12 5.4 293.39 5.59 293.64 5.81C293.88 6.03 294.1 6.28 294.29 6.56C294.48 6.83 294.63 7.12 294.75 7.43C295.77 10.24 296.9 13.47 298.13 17.13C299.35 20.78 300.59 24.55 301.84 28.43C303.09 32.31 304.31 36.12 305.48 39.84C306.66 43.57 307.71 46.92 308.62 49.88C308.48 50.04 308.32 50.18 308.16 50.32C307.99 50.46 307.82 50.59 307.65 50.71C307.47 50.82 307.29 50.93 307.1 51.03C306.91 51.13 306.72 51.22 306.52 51.3C306.27 51.4 306.01 51.49 305.75 51.57C305.49 51.64 305.22 51.7 304.96 51.75C304.69 51.8 304.42 51.83 304.15 51.85C303.88 51.88 303.61 51.88 303.34 51.88C303 51.91 302.67 51.91 302.34 51.88C302.01 51.86 301.68 51.81 301.36 51.72C301.03 51.64 300.72 51.53 300.41 51.4C300.11 51.26 299.82 51.1 299.54 50.92C299.33 50.71 299.13 50.49 298.95 50.26C298.77 50.03 298.61 49.79 298.46 49.53C298.32 49.27 298.19 49.01 298.08 48.74C297.98 48.46 297.89 48.18 297.82 47.9L295.52 40.23ZM286.94 12.8C286.48 14.07 285.98 15.5 285.44 17.09C284.91 18.67 284.34 20.32 283.76 22.03C283.17 23.74 282.57 25.48 281.96 27.24C281.34 29 280.76 30.73 280.19 32.41L293.53 32.41L287.32 12.8L286.94 12.8Z" />
			<path id="Layer" fill-rule="evenodd" class="shp0" d="M332.46 52.26C332.11 52.27 331.77 52.26 331.42 52.24C331.08 52.23 330.74 52.2 330.39 52.17C330.05 52.13 329.71 52.09 329.37 52.03C329.03 51.98 328.69 51.91 328.36 51.84C328.07 51.78 327.78 51.71 327.49 51.63C327.2 51.56 326.91 51.48 326.63 51.39C326.35 51.31 326.06 51.21 325.78 51.12C325.5 51.02 325.22 50.92 324.95 50.81L324.95 64.91C324.49 65.01 323.87 65.14 323.11 65.29C322.89 65.33 322.68 65.37 322.46 65.4C322.25 65.43 322.03 65.45 321.81 65.47C321.6 65.49 321.38 65.5 321.16 65.51C320.94 65.52 320.72 65.52 320.51 65.52C320.16 65.55 319.81 65.54 319.46 65.51C319.12 65.48 318.77 65.43 318.43 65.34C318.1 65.26 317.77 65.15 317.45 65.01C317.12 64.87 316.82 64.71 316.52 64.52C316.28 64.3 316.07 64.05 315.89 63.78C315.71 63.51 315.57 63.22 315.45 62.91C315.34 62.61 315.26 62.29 315.23 61.97C315.19 61.65 315.19 61.32 315.22 61L315.22 22.15C315.21 21.89 315.22 21.63 315.24 21.37C315.27 21.11 315.31 20.85 315.37 20.6C315.43 20.35 315.51 20.1 315.61 19.86C315.71 19.62 315.82 19.38 315.95 19.16C316.1 18.94 316.26 18.73 316.44 18.53C316.61 18.32 316.8 18.13 317 17.95C317.19 17.77 317.4 17.6 317.62 17.45C317.83 17.29 318.06 17.14 318.29 17.01C318.72 16.77 319.16 16.54 319.61 16.32C320.06 16.1 320.51 15.9 320.97 15.71C321.44 15.52 321.9 15.35 322.37 15.19C322.84 15.03 323.32 14.88 323.8 14.75C324.4 14.58 325.01 14.44 325.63 14.32C326.24 14.19 326.86 14.09 327.48 14.01C328.1 13.93 328.73 13.87 329.35 13.83C329.98 13.8 330.6 13.78 331.23 13.79C331.89 13.79 332.54 13.81 333.2 13.85C333.86 13.89 334.51 13.96 335.16 14.05C335.81 14.15 336.46 14.26 337.1 14.41C337.74 14.55 338.38 14.71 339.01 14.9C339.58 15.07 340.14 15.28 340.68 15.51C341.23 15.74 341.76 16 342.28 16.29C342.8 16.58 343.3 16.9 343.78 17.24C344.27 17.59 344.73 17.96 345.18 18.35C345.62 18.76 346.05 19.19 346.44 19.65C346.84 20.11 347.21 20.59 347.55 21.09C347.89 21.59 348.21 22.11 348.49 22.64C348.77 23.18 349.02 23.73 349.24 24.29C349.5 24.98 349.72 25.67 349.91 26.38C350.1 27.08 350.26 27.79 350.38 28.51C350.5 29.23 350.59 29.96 350.64 30.69C350.69 31.41 350.71 32.15 350.7 32.88C350.71 33.59 350.69 34.31 350.64 35.02C350.59 35.74 350.51 36.45 350.39 37.15C350.28 37.86 350.13 38.56 349.95 39.25C349.77 39.95 349.56 40.63 349.31 41.31C349.11 41.87 348.87 42.42 348.61 42.96C348.34 43.5 348.05 44.02 347.73 44.53C347.42 45.04 347.07 45.53 346.7 46C346.33 46.47 345.94 46.93 345.52 47.36C345.12 47.77 344.69 48.15 344.25 48.51C343.8 48.88 343.34 49.21 342.85 49.52C342.37 49.83 341.87 50.11 341.36 50.36C340.84 50.62 340.31 50.84 339.77 51.04C339.19 51.25 338.59 51.43 337.99 51.59C337.39 51.74 336.78 51.87 336.17 51.97C335.56 52.08 334.94 52.15 334.32 52.2C333.7 52.25 333.08 52.27 332.46 52.26ZM332.99 44.42C333.65 44.31 334.29 44.13 334.91 43.89C335.53 43.65 336.12 43.34 336.67 42.97C337.23 42.6 337.74 42.17 338.2 41.69C339.93 39.8 340.8 36.86 340.81 32.88C340.81 28.74 339.91 25.8 338.12 24.06C337.67 23.63 337.17 23.24 336.63 22.9C336.1 22.57 335.53 22.28 334.94 22.06C334.35 21.84 333.73 21.67 333.11 21.57C332.49 21.47 331.86 21.43 331.22 21.46C330.92 21.45 330.61 21.46 330.3 21.48C329.99 21.5 329.69 21.53 329.38 21.57C329.08 21.62 328.78 21.68 328.48 21.75C328.18 21.82 327.88 21.9 327.59 21.99C327.35 22.07 327.12 22.15 326.89 22.24C326.66 22.33 326.43 22.42 326.2 22.51C325.97 22.61 325.75 22.71 325.53 22.81C325.3 22.92 325.08 23.03 324.86 23.14L324.86 42.84C325.08 42.97 325.29 43.1 325.51 43.21C325.73 43.33 325.96 43.44 326.19 43.54C326.41 43.64 326.65 43.74 326.88 43.83C327.11 43.91 327.35 43.99 327.59 44.06C327.87 44.14 328.15 44.21 328.43 44.27C328.71 44.33 328.99 44.38 329.28 44.42C329.56 44.46 329.85 44.49 330.14 44.5C330.42 44.52 330.71 44.53 331 44.52C331.66 44.56 332.33 44.52 332.99 44.42Z" />
			<path id="Layer" fill-rule="evenodd" class="shp0" d="M394.38 33.03C394.39 33.71 394.37 34.39 394.32 35.07C394.26 35.75 394.18 36.42 394.07 37.09C393.96 37.76 393.81 38.43 393.64 39.09C393.47 39.75 393.27 40.4 393.04 41.04C392.83 41.6 392.59 42.16 392.33 42.7C392.07 43.24 391.77 43.77 391.46 44.28C391.14 44.79 390.79 45.29 390.42 45.76C390.05 46.24 389.66 46.69 389.24 47.13C388.83 47.55 388.39 47.95 387.94 48.33C387.48 48.71 387 49.06 386.5 49.39C386.01 49.71 385.5 50.01 384.97 50.28C384.44 50.55 383.9 50.79 383.34 51C382.73 51.23 382.1 51.43 381.46 51.6C380.83 51.78 380.18 51.92 379.54 52.03C378.89 52.14 378.23 52.23 377.58 52.28C376.92 52.33 376.26 52.35 375.6 52.34C374.94 52.35 374.29 52.33 373.63 52.28C372.97 52.23 372.32 52.14 371.67 52.03C371.02 51.92 370.38 51.78 369.74 51.6C369.11 51.43 368.48 51.23 367.86 51C367.31 50.79 366.77 50.55 366.24 50.28C365.71 50.02 365.2 49.72 364.71 49.4C364.21 49.08 363.73 48.73 363.27 48.36C362.82 47.98 362.38 47.59 361.96 47.17C361.54 46.74 361.15 46.28 360.78 45.81C360.41 45.34 360.06 44.85 359.74 44.34C359.43 43.83 359.13 43.31 358.87 42.77C358.61 42.23 358.37 41.68 358.17 41.11C357.94 40.47 357.73 39.81 357.56 39.15C357.39 38.48 357.24 37.81 357.13 37.13C357.02 36.45 356.94 35.77 356.89 35.09C356.84 34.4 356.82 33.71 356.83 33.03C356.82 32.35 356.84 31.67 356.89 30.99C356.94 30.31 357.02 29.63 357.14 28.96C357.25 28.29 357.39 27.63 357.56 26.97C357.74 26.31 357.94 25.66 358.17 25.02C358.37 24.45 358.61 23.9 358.88 23.36C359.14 22.82 359.44 22.29 359.76 21.79C360.08 21.28 360.43 20.79 360.8 20.31C361.18 19.84 361.58 19.39 362 18.97C362.42 18.55 362.87 18.15 363.33 17.78C363.79 17.41 364.27 17.06 364.77 16.74C365.27 16.42 365.79 16.12 366.31 15.85C366.84 15.58 367.39 15.34 367.94 15.13C368.55 14.9 369.17 14.7 369.8 14.53C370.43 14.36 371.07 14.22 371.71 14.1C372.35 13.99 373 13.91 373.65 13.86C374.3 13.81 374.95 13.78 375.6 13.79C376.25 13.78 376.91 13.81 377.56 13.86C378.21 13.91 378.85 13.99 379.5 14.1C380.14 14.22 380.78 14.36 381.41 14.53C382.03 14.7 382.66 14.9 383.27 15.13C383.82 15.35 384.37 15.59 384.9 15.86C385.43 16.13 385.94 16.43 386.44 16.75C386.94 17.08 387.42 17.43 387.88 17.8C388.35 18.18 388.79 18.58 389.21 19C389.63 19.44 390.03 19.89 390.4 20.37C390.77 20.84 391.12 21.34 391.44 21.85C391.77 22.36 392.06 22.89 392.33 23.43C392.59 23.97 392.83 24.53 393.04 25.1C393.27 25.73 393.47 26.37 393.64 27.03C393.81 27.68 393.95 28.34 394.07 29C394.18 29.67 394.26 30.34 394.31 31.01C394.37 31.68 394.39 32.35 394.38 33.03ZM373.75 21.6C373.14 21.72 372.54 21.92 371.98 22.18C371.41 22.44 370.88 22.77 370.39 23.16C369.91 23.55 369.47 23.99 369.09 24.48C367.5 26.5 366.71 29.35 366.71 33.03C366.71 36.76 367.49 39.62 369.05 41.61C369.44 42.1 369.88 42.55 370.37 42.93C370.86 43.32 371.39 43.64 371.96 43.9C372.53 44.16 373.13 44.35 373.74 44.47C374.35 44.59 374.98 44.63 375.6 44.6C376.23 44.63 376.85 44.58 377.47 44.46C378.08 44.35 378.68 44.15 379.25 43.89C379.82 43.63 380.35 43.3 380.84 42.91C381.33 42.52 381.77 42.07 382.15 41.57C383.71 39.56 384.49 36.71 384.49 33.03C384.49 29.35 383.7 26.5 382.12 24.48C381.74 23.99 381.3 23.55 380.81 23.16C380.32 22.77 379.79 22.44 379.23 22.18C378.66 21.92 378.07 21.72 377.46 21.6C376.85 21.48 376.22 21.43 375.6 21.46C374.98 21.43 374.36 21.48 373.75 21.6Z" />
			<path id="Layer" class="shp0" d="M413.5 43.45C413.81 43.64 414.13 43.82 414.47 43.96C414.8 44.1 415.15 44.22 415.5 44.31C415.86 44.4 416.22 44.47 416.58 44.5C416.94 44.54 417.31 44.54 417.67 44.52C417.9 44.52 418.12 44.52 418.34 44.5C418.56 44.49 418.78 44.47 419 44.44C419.23 44.42 419.45 44.39 419.66 44.35C419.88 44.31 420.1 44.27 420.32 44.22C420.52 44.17 420.73 44.12 420.93 44.07C421.14 44.01 421.34 43.95 421.54 43.89C421.74 43.82 421.94 43.76 422.14 43.68C422.34 43.61 422.54 43.53 422.73 43.45C422.84 43.56 422.94 43.67 423.04 43.79C423.13 43.91 423.23 44.03 423.31 44.16C423.4 44.28 423.48 44.41 423.56 44.54C423.63 44.68 423.7 44.81 423.77 44.95C423.84 45.11 423.9 45.27 423.96 45.44C424.01 45.6 424.06 45.77 424.09 45.94C424.13 46.11 424.15 46.28 424.17 46.46C424.19 46.63 424.19 46.81 424.19 46.98C424.19 47.36 424.14 47.73 424.05 48.09C423.95 48.46 423.82 48.81 423.64 49.14C423.46 49.47 423.24 49.77 422.98 50.05C422.72 50.32 422.43 50.57 422.12 50.77C420.74 51.76 418.52 52.26 415.45 52.26C411.41 52.26 408.23 51.36 405.91 49.54C403.59 47.73 402.42 44.73 402.42 40.54L402.42 5.36C402.83 5.26 403.43 5.13 404.22 4.98C404.44 4.94 404.65 4.91 404.86 4.88C405.08 4.85 405.29 4.82 405.51 4.8C405.72 4.78 405.93 4.77 406.15 4.76C406.37 4.75 406.58 4.75 406.8 4.75C407.14 4.72 407.49 4.72 407.83 4.75C408.18 4.78 408.52 4.84 408.85 4.93C409.19 5.01 409.51 5.12 409.83 5.26C410.15 5.4 410.45 5.56 410.74 5.75C410.98 5.98 411.18 6.23 411.36 6.5C411.53 6.77 411.68 7.06 411.78 7.37C411.89 7.67 411.97 7.99 412.01 8.31C412.04 8.63 412.04 8.95 412.01 9.28L412.01 15.64L423.27 15.64C423.34 15.76 423.41 15.89 423.48 16.02C423.54 16.15 423.61 16.28 423.66 16.42C423.72 16.55 423.78 16.69 423.82 16.83C423.87 16.97 423.92 17.11 423.96 17.25C424.01 17.42 424.06 17.6 424.09 17.77C424.13 17.95 424.17 18.13 424.19 18.31C424.22 18.49 424.24 18.67 424.25 18.85C424.26 19.03 424.27 19.21 424.26 19.39C424.29 19.65 424.28 19.91 424.26 20.17C424.23 20.43 424.17 20.69 424.1 20.94C424.02 21.19 423.91 21.43 423.79 21.66C423.66 21.89 423.51 22.1 423.34 22.3C423.18 22.46 423.01 22.6 422.82 22.72C422.63 22.84 422.42 22.94 422.21 23.02C422 23.09 421.79 23.15 421.56 23.19C421.34 23.22 421.12 23.23 420.89 23.22L412 23.22L412 39.93C411.97 40.26 411.98 40.59 412.03 40.92C412.08 41.25 412.18 41.57 412.31 41.88C412.44 42.18 412.6 42.47 412.8 42.74C413 43 413.24 43.24 413.5 43.45" />
			<path id="Layer" fill-rule="evenodd" class="shp0" d="M439.67 37.4C439.8 37.97 439.98 38.54 440.22 39.08C440.46 39.62 440.76 40.14 441.1 40.63C441.44 41.11 441.83 41.56 442.26 41.97C442.68 42.38 443.15 42.75 443.65 43.07C444.2 43.38 444.76 43.65 445.34 43.88C445.93 44.11 446.52 44.3 447.13 44.45C447.74 44.59 448.36 44.7 448.98 44.77C449.6 44.83 450.23 44.85 450.85 44.83C451.36 44.84 451.86 44.82 452.36 44.78C452.87 44.74 453.37 44.69 453.87 44.61C454.36 44.52 454.86 44.42 455.35 44.3C455.84 44.18 456.32 44.04 456.8 43.87C457.18 43.75 457.56 43.61 457.94 43.46C458.32 43.31 458.69 43.15 459.06 42.98C459.42 42.81 459.79 42.63 460.14 42.44C460.5 42.25 460.86 42.05 461.2 41.84C461.38 41.94 461.55 42.06 461.72 42.18C461.88 42.3 462.04 42.44 462.19 42.58C462.33 42.72 462.47 42.87 462.6 43.03C462.73 43.19 462.86 43.35 462.96 43.53C463.08 43.7 463.18 43.88 463.26 44.06C463.35 44.24 463.42 44.43 463.48 44.63C463.54 44.82 463.58 45.02 463.61 45.22C463.64 45.42 463.65 45.62 463.65 45.83C463.66 46.08 463.63 46.32 463.59 46.57C463.55 46.81 463.48 47.05 463.39 47.29C463.3 47.52 463.19 47.74 463.06 47.95C462.94 48.16 462.79 48.36 462.62 48.55C462.42 48.77 462.21 48.97 461.99 49.17C461.78 49.36 461.55 49.54 461.31 49.71C461.07 49.88 460.82 50.04 460.57 50.19C460.31 50.33 460.05 50.46 459.78 50.58C459.45 50.73 459.1 50.87 458.75 51C458.41 51.13 458.05 51.25 457.7 51.36C457.34 51.47 456.98 51.57 456.62 51.66C456.26 51.74 455.9 51.82 455.53 51.88C455.1 51.96 454.66 52.03 454.22 52.09C453.78 52.14 453.34 52.19 452.9 52.23C452.46 52.27 452.01 52.3 451.57 52.32C451.13 52.33 450.69 52.34 450.24 52.34C449.55 52.35 448.85 52.33 448.15 52.28C447.46 52.23 446.76 52.16 446.08 52.06C445.39 51.95 444.7 51.82 444.02 51.67C443.34 51.51 442.67 51.32 442 51.11C441.41 50.93 440.84 50.71 440.27 50.46C439.7 50.2 439.15 49.92 438.62 49.61C438.08 49.3 437.57 48.95 437.07 48.59C436.57 48.22 436.1 47.82 435.64 47.4C435.19 46.97 434.77 46.51 434.36 46.03C433.96 45.56 433.59 45.06 433.24 44.54C432.89 44.02 432.57 43.48 432.28 42.93C431.99 42.38 431.73 41.81 431.51 41.23C431.24 40.55 431.02 39.85 430.82 39.15C430.63 38.44 430.47 37.73 430.34 37.01C430.22 36.29 430.13 35.56 430.07 34.83C430.02 34.11 430 33.38 430.01 32.64C430 31.94 430.02 31.24 430.07 30.53C430.12 29.83 430.21 29.13 430.33 28.44C430.46 27.74 430.61 27.06 430.8 26.38C430.99 25.7 431.21 25.03 431.47 24.37C431.69 23.82 431.94 23.28 432.22 22.75C432.49 22.22 432.8 21.71 433.13 21.21C433.46 20.72 433.82 20.24 434.2 19.78C434.58 19.33 434.99 18.89 435.41 18.47C435.83 18.08 436.26 17.71 436.71 17.36C437.16 17.01 437.63 16.69 438.12 16.39C438.6 16.1 439.1 15.83 439.62 15.59C440.13 15.34 440.66 15.13 441.2 14.94C441.76 14.75 442.33 14.58 442.9 14.43C443.47 14.29 444.05 14.17 444.64 14.07C445.22 13.98 445.81 13.9 446.4 13.86C446.99 13.81 447.58 13.79 448.17 13.79C448.76 13.79 449.35 13.81 449.93 13.85C450.52 13.9 451.1 13.97 451.68 14.07C452.26 14.17 452.83 14.3 453.4 14.45C453.96 14.6 454.52 14.78 455.07 14.98C455.57 15.16 456.06 15.37 456.53 15.6C457.01 15.83 457.47 16.08 457.92 16.36C458.37 16.64 458.81 16.94 459.23 17.26C459.65 17.58 460.05 17.92 460.44 18.28C460.81 18.64 461.17 19.01 461.5 19.4C461.84 19.8 462.15 20.2 462.44 20.63C462.74 21.05 463.01 21.49 463.26 21.95C463.5 22.4 463.73 22.86 463.93 23.34C464.14 23.84 464.33 24.36 464.49 24.88C464.65 25.4 464.78 25.94 464.89 26.47C464.99 27.01 465.07 27.55 465.12 28.1C465.17 28.64 465.2 29.19 465.19 29.74C465.21 30.03 465.21 30.32 465.17 30.61C465.13 30.9 465.06 31.18 464.97 31.46C464.87 31.74 464.75 32 464.6 32.25C464.45 32.5 464.27 32.74 464.07 32.95C463.86 33.14 463.63 33.32 463.39 33.47C463.15 33.63 462.9 33.77 462.63 33.88C462.37 34 462.1 34.1 461.82 34.17C461.54 34.25 461.26 34.3 460.97 34.33L439.67 37.4ZM446.45 21.2C445.88 21.3 445.32 21.46 444.78 21.68C444.24 21.89 443.72 22.16 443.24 22.47C442.75 22.79 442.3 23.16 441.89 23.56C441.45 24.04 441.05 24.56 440.7 25.11C440.35 25.66 440.05 26.24 439.81 26.84C439.57 27.45 439.38 28.07 439.25 28.71C439.13 29.35 439.06 30 439.05 30.65L456.07 28.12C456.02 27.67 455.94 27.21 455.82 26.77C455.7 26.32 455.55 25.89 455.36 25.47C455.17 25.05 454.95 24.65 454.69 24.26C454.44 23.88 454.16 23.52 453.85 23.18C453.48 22.81 453.07 22.49 452.63 22.21C452.19 21.92 451.73 21.69 451.24 21.51C450.75 21.33 450.25 21.2 449.73 21.13C449.22 21.05 448.69 21.04 448.17 21.07C447.6 21.06 447.02 21.1 446.45 21.2Z" />
			<path id="Layer" class="shp0" d="M480.74 51.5C480.53 51.54 480.31 51.57 480.1 51.6C479.88 51.63 479.66 51.66 479.45 51.68C479.23 51.69 479.01 51.71 478.79 51.72C478.58 51.73 478.36 51.73 478.14 51.73C477.79 51.75 477.44 51.75 477.1 51.72C476.75 51.69 476.4 51.63 476.07 51.55C475.73 51.46 475.4 51.35 475.08 51.21C474.76 51.08 474.45 50.91 474.15 50.73C473.29 50.06 472.85 48.89 472.85 47.2L472.85 1.38C473 1.33 473.15 1.28 473.3 1.24C473.44 1.2 473.59 1.16 473.74 1.12C473.89 1.09 474.04 1.06 474.2 1.03C474.35 1 474.5 0.98 474.65 0.96C474.87 0.92 475.09 0.89 475.31 0.87C475.53 0.84 475.75 0.82 475.97 0.81C476.19 0.79 476.41 0.78 476.63 0.77C476.85 0.77 477.08 0.76 477.3 0.76C477.64 0.74 477.99 0.74 478.34 0.77C478.69 0.8 479.03 0.86 479.37 0.94C479.71 1.03 480.04 1.14 480.36 1.28C480.68 1.41 480.99 1.58 481.28 1.76C481.52 1.99 481.73 2.24 481.91 2.51C482.09 2.78 482.24 3.07 482.35 3.37C482.46 3.68 482.54 3.99 482.58 4.32C482.62 4.64 482.62 4.97 482.58 5.29L482.58 29.05L497.45 14.25C497.86 14.23 498.27 14.24 498.68 14.29C499.09 14.34 499.5 14.41 499.89 14.52C500.29 14.63 500.68 14.78 501.05 14.95C501.42 15.12 501.78 15.32 502.13 15.55C502.4 15.73 502.64 15.94 502.86 16.19C503.08 16.43 503.27 16.69 503.42 16.98C503.58 17.27 503.69 17.57 503.77 17.89C503.85 18.2 503.89 18.53 503.89 18.85C503.89 19.13 503.87 19.41 503.83 19.68C503.78 19.96 503.71 20.23 503.61 20.49C503.52 20.75 503.4 21 503.26 21.24C503.12 21.48 502.96 21.71 502.78 21.92C502.51 22.21 502.23 22.51 501.95 22.79C501.67 23.08 501.39 23.36 501.1 23.64C500.81 23.91 500.51 24.18 500.21 24.44C499.91 24.71 499.6 24.97 499.29 25.22L491.01 32.42L505.65 46.13C505.63 46.51 505.57 46.89 505.49 47.26C505.41 47.63 505.3 47.99 505.17 48.34C505.03 48.7 504.87 49.04 504.68 49.37C504.49 49.7 504.28 50.01 504.04 50.31C503.81 50.56 503.54 50.79 503.25 50.99C502.97 51.19 502.66 51.35 502.33 51.48C502.01 51.61 501.67 51.7 501.33 51.76C500.98 51.81 500.63 51.83 500.29 51.8C500.01 51.81 499.74 51.8 499.47 51.76C499.2 51.73 498.94 51.68 498.68 51.6C498.41 51.53 498.16 51.44 497.91 51.34C497.66 51.23 497.42 51.1 497.19 50.96C496.88 50.75 496.59 50.53 496.3 50.3C496.01 50.06 495.73 49.82 495.46 49.57C495.19 49.32 494.92 49.07 494.67 48.8C494.41 48.53 494.17 48.26 493.93 47.97L482.58 35.4L482.58 51.11C482.12 51.22 481.51 51.34 480.74 51.5Z" />
			<path id="Layer" fill-rule="evenodd" class="shp0" d="M526.73 13.79C531.73 13.79 535.73 14.87 538.72 17.01C541.71 19.16 543.2 22.48 543.2 26.97L543.2 44.67C543.22 44.93 543.21 45.19 543.17 45.45C543.14 45.71 543.09 45.97 543.01 46.21C542.93 46.46 542.83 46.7 542.71 46.93C542.59 47.16 542.44 47.38 542.28 47.59C542.12 47.77 541.95 47.96 541.77 48.13C541.59 48.31 541.4 48.47 541.21 48.64C541.02 48.8 540.82 48.95 540.61 49.09C540.41 49.24 540.2 49.37 539.98 49.5C539.56 49.74 539.13 49.97 538.69 50.18C538.25 50.39 537.8 50.58 537.34 50.75C536.89 50.93 536.43 51.08 535.96 51.22C535.49 51.36 535.02 51.47 534.54 51.57C533.93 51.71 533.31 51.83 532.68 51.92C532.06 52.02 531.44 52.11 530.81 52.17C530.18 52.23 529.55 52.28 528.92 52.31C528.29 52.34 527.66 52.35 527.03 52.34C521.92 52.34 517.9 51.36 514.96 49.39C512.02 47.42 510.56 44.47 510.56 40.54C510.56 37.12 511.64 34.5 513.81 32.68C515.98 30.87 519.14 29.76 523.28 29.35L533.78 28.28L533.78 26.9C533.8 26.48 533.78 26.06 533.7 25.65C533.62 25.24 533.48 24.84 533.3 24.47C533.12 24.09 532.88 23.74 532.61 23.43C532.33 23.11 532.02 22.84 531.67 22.61C531.22 22.35 530.75 22.13 530.27 21.94C529.79 21.76 529.3 21.61 528.8 21.49C528.3 21.37 527.79 21.29 527.28 21.25C526.76 21.2 526.25 21.2 525.73 21.23C525.24 21.23 524.75 21.24 524.26 21.27C523.77 21.3 523.28 21.35 522.8 21.41C522.31 21.47 521.83 21.54 521.34 21.63C520.86 21.73 520.38 21.83 519.91 21.95C519.47 22.06 519.04 22.18 518.61 22.31C518.18 22.44 517.76 22.58 517.33 22.73C516.91 22.88 516.49 23.04 516.08 23.21C515.66 23.38 515.25 23.56 514.85 23.75C514.7 23.64 514.56 23.53 514.43 23.4C514.3 23.28 514.17 23.15 514.05 23.01C513.93 22.87 513.82 22.73 513.72 22.58C513.61 22.42 513.52 22.27 513.43 22.11C513.34 21.94 513.25 21.76 513.18 21.58C513.11 21.39 513.05 21.21 513 21.01C512.95 20.82 512.91 20.63 512.89 20.44C512.87 20.24 512.86 20.04 512.86 19.85C512.85 19.63 512.86 19.41 512.88 19.19C512.91 18.97 512.95 18.75 513.01 18.54C513.08 18.33 513.16 18.12 513.25 17.92C513.35 17.73 513.46 17.54 513.59 17.36C513.74 17.17 513.91 16.99 514.09 16.82C514.27 16.66 514.46 16.5 514.65 16.36C514.85 16.21 515.06 16.08 515.27 15.96C515.48 15.84 515.7 15.73 515.92 15.63C516.33 15.47 516.74 15.32 517.16 15.18C517.57 15.04 517.99 14.91 518.41 14.8C518.84 14.68 519.26 14.58 519.69 14.49C520.12 14.4 520.55 14.32 520.98 14.25C521.46 14.18 521.93 14.11 522.41 14.05C522.89 13.99 523.36 13.95 523.84 13.91C524.32 13.87 524.8 13.84 525.28 13.82C525.76 13.8 526.24 13.79 526.73 13.79ZM527.03 44.98C527.37 44.99 527.71 44.98 528.05 44.96C528.4 44.95 528.74 44.92 529.07 44.89C529.41 44.85 529.75 44.81 530.09 44.75C530.43 44.7 530.76 44.63 531.09 44.56C531.33 44.52 531.57 44.47 531.8 44.4C532.03 44.34 532.26 44.26 532.48 44.17C532.71 44.09 532.93 43.99 533.14 43.88C533.36 43.77 533.57 43.65 533.78 43.53L533.78 35.02L526.34 35.71C525.93 35.73 525.53 35.77 525.12 35.84C524.72 35.91 524.32 36 523.93 36.11C523.53 36.22 523.15 36.36 522.77 36.52C522.39 36.67 522.02 36.85 521.67 37.05C521.4 37.23 521.16 37.43 520.95 37.67C520.74 37.91 520.56 38.18 520.42 38.46C520.28 38.75 520.18 39.05 520.12 39.36C520.05 39.67 520.03 39.99 520.06 40.31C520.04 40.64 520.07 40.97 520.13 41.3C520.2 41.62 520.31 41.94 520.45 42.24C520.59 42.54 520.77 42.82 520.98 43.08C521.2 43.33 521.44 43.56 521.71 43.76C522.8 44.57 524.58 44.98 527.03 44.98Z" />
			<path id="Layer" class="shp1" d="M154.06 153.18C159.02 153.18 162.65 152.22 164.96 150.29C165.5 149.87 166 149.38 166.43 148.84C166.86 148.29 167.23 147.71 167.53 147.08C167.83 146.45 168.06 145.8 168.21 145.12C168.35 144.44 168.42 143.75 168.42 143.06C168.44 142.46 168.4 141.87 168.29 141.28C168.19 140.7 168.02 140.13 167.78 139.58C167.55 139.03 167.26 138.51 166.91 138.03C166.57 137.55 166.17 137.11 165.72 136.71C165.12 136.24 164.49 135.8 163.84 135.39C163.19 134.98 162.52 134.61 161.83 134.27C161.15 133.93 160.44 133.63 159.72 133.36C159 133.1 158.27 132.87 157.52 132.68L149.32 130.12C148.57 129.88 147.82 129.63 147.07 129.37C146.32 129.11 145.58 128.83 144.84 128.55C144.1 128.26 143.37 127.96 142.65 127.64C141.92 127.33 141.2 127 140.48 126.66C139.87 126.36 139.26 126.05 138.66 125.71C138.07 125.38 137.49 125.02 136.92 124.64C136.35 124.26 135.8 123.85 135.26 123.43C134.72 123.01 134.2 122.57 133.69 122.11C133.23 121.68 132.79 121.22 132.37 120.75C131.95 120.27 131.56 119.77 131.19 119.26C130.83 118.74 130.49 118.21 130.18 117.66C129.87 117.1 129.59 116.54 129.34 115.96C129.07 115.29 128.83 114.62 128.63 113.93C128.43 113.24 128.26 112.54 128.13 111.84C128.01 111.14 127.91 110.43 127.86 109.71C127.8 109 127.78 108.28 127.8 107.57C127.8 100.65 130.4 95.16 135.62 91.1C140.83 87.04 147.96 85.01 157.01 85.01C157.85 85.01 158.68 85.02 159.51 85.05C160.34 85.09 161.17 85.14 162 85.21C162.83 85.28 163.65 85.36 164.48 85.47C165.3 85.58 166.13 85.7 166.94 85.85C167.62 85.96 168.29 86.1 168.96 86.25C169.63 86.41 170.29 86.58 170.95 86.77C171.61 86.96 172.26 87.18 172.91 87.41C173.55 87.64 174.19 87.89 174.82 88.15C175.32 88.36 175.8 88.59 176.27 88.84C176.74 89.1 177.19 89.38 177.62 89.69C178.06 90 178.48 90.33 178.88 90.68C179.28 91.03 179.66 91.41 180.01 91.81C180.31 92.14 180.57 92.5 180.8 92.88C181.03 93.26 181.23 93.66 181.39 94.07C181.55 94.49 181.66 94.92 181.74 95.35C181.83 95.79 181.87 96.23 181.87 96.68C181.88 97.06 181.86 97.45 181.81 97.84C181.76 98.22 181.69 98.6 181.58 98.98C181.48 99.35 181.35 99.72 181.19 100.07C181.04 100.43 180.86 100.77 180.65 101.1C180.45 101.4 180.24 101.69 180.02 101.97C179.79 102.24 179.55 102.51 179.3 102.76C179.05 103.02 178.78 103.25 178.5 103.48C178.23 103.7 177.94 103.91 177.64 104.11C177.01 103.69 176.37 103.3 175.72 102.93C175.06 102.57 174.39 102.22 173.71 101.91C173.03 101.59 172.34 101.3 171.64 101.04C170.93 100.77 170.22 100.54 169.5 100.33C168.6 100.05 167.7 99.81 166.78 99.61C165.87 99.4 164.95 99.24 164.02 99.1C163.09 98.97 162.16 98.87 161.23 98.81C160.29 98.74 159.35 98.72 158.42 98.73C153.98 98.73 150.6 99.52 148.3 101.1C147.76 101.44 147.26 101.85 146.83 102.32C146.39 102.79 146.02 103.31 145.71 103.88C145.41 104.44 145.18 105.04 145.04 105.67C144.89 106.29 144.82 106.93 144.84 107.57C144.81 108.06 144.84 108.55 144.94 109.03C145.03 109.51 145.18 109.98 145.39 110.43C145.59 110.87 145.85 111.29 146.16 111.67C146.46 112.05 146.82 112.4 147.21 112.69C147.78 113.08 148.37 113.44 148.97 113.78C149.58 114.12 150.19 114.43 150.82 114.72C151.45 115.01 152.09 115.27 152.74 115.51C153.38 115.75 154.04 115.97 154.71 116.15L162.01 118.46C169.44 120.68 175.21 123.72 179.31 127.56C183.41 131.4 185.46 136.61 185.46 143.18C185.47 144.01 185.43 144.84 185.35 145.66C185.27 146.48 185.14 147.3 184.97 148.1C184.79 148.91 184.58 149.71 184.32 150.49C184.06 151.27 183.75 152.04 183.4 152.79C183.06 153.52 182.68 154.23 182.25 154.91C181.82 155.6 181.36 156.25 180.86 156.88C180.36 157.51 179.82 158.12 179.25 158.68C178.68 159.25 178.08 159.79 177.45 160.29C176.73 160.85 175.98 161.37 175.2 161.85C174.43 162.34 173.63 162.79 172.82 163.2C172 163.61 171.16 163.97 170.31 164.3C169.46 164.63 168.59 164.91 167.71 165.16C166.63 165.46 165.55 165.72 164.45 165.95C163.35 166.17 162.25 166.35 161.14 166.5C160.03 166.64 158.92 166.75 157.8 166.81C156.69 166.88 155.57 166.9 154.45 166.89C153.54 166.89 152.63 166.88 151.73 166.84C150.82 166.8 149.91 166.74 149.01 166.65C148.11 166.57 147.2 166.46 146.31 166.33C145.41 166.19 144.51 166.04 143.62 165.86C142.89 165.72 142.16 165.55 141.43 165.37C140.71 165.18 139.99 164.97 139.28 164.74C138.57 164.51 137.86 164.26 137.17 163.99C136.47 163.72 135.78 163.42 135.1 163.11C134.57 162.87 134.05 162.6 133.55 162.31C133.05 162.02 132.57 161.7 132.1 161.35C131.63 161.01 131.18 160.64 130.75 160.25C130.32 159.86 129.91 159.44 129.53 159.01C129.22 158.65 128.93 158.27 128.69 157.87C128.44 157.46 128.23 157.04 128.06 156.59C127.9 156.15 127.77 155.69 127.68 155.23C127.59 154.76 127.55 154.29 127.54 153.82C127.53 153.36 127.56 152.91 127.63 152.46C127.7 152.01 127.81 151.56 127.96 151.13C128.1 150.7 128.29 150.29 128.51 149.89C128.73 149.49 128.99 149.11 129.27 148.76C129.54 148.42 129.83 148.1 130.14 147.8C130.44 147.5 130.76 147.21 131.1 146.95C131.44 146.68 131.8 146.44 132.17 146.22C132.54 145.99 132.92 145.79 133.31 145.62C133.94 146.15 134.6 146.66 135.27 147.15C135.95 147.63 136.64 148.09 137.34 148.52C138.05 148.96 138.78 149.37 139.51 149.75C140.25 150.13 141 150.48 141.76 150.81C142.73 151.22 143.72 151.58 144.73 151.89C145.73 152.2 146.76 152.45 147.79 152.65C148.82 152.85 149.86 152.99 150.91 153.08C151.96 153.17 153.01 153.2 154.06 153.18" />
			<path id="Layer" class="shp1" d="M204.03 165.73C200.78 165.73 198.48 165.13 197.11 163.94C195.75 162.74 195.06 160.74 195.06 157.92L195.06 87.06C195.83 86.89 196.94 86.68 198.39 86.42C198.75 86.36 199.11 86.3 199.48 86.26C199.84 86.21 200.2 86.17 200.56 86.14C200.93 86.1 201.29 86.08 201.66 86.06C202.02 86.05 202.39 86.04 202.75 86.04C205.83 86.04 208.09 86.6 209.54 87.7C210.99 88.81 211.72 90.87 211.72 93.86L211.72 164.71C210.95 164.88 209.86 165.09 208.45 165.35C208.09 165.41 207.72 165.47 207.35 165.52C206.99 165.57 206.62 165.61 206.25 165.64C205.88 165.67 205.51 165.7 205.14 165.71C204.77 165.73 204.4 165.73 204.03 165.73" />
			<path id="Layer" class="shp1" d="M234.91 165.73C231.75 165.73 229.53 165.16 228.25 164C226.97 162.85 226.32 160.91 226.32 158.17L226.32 89.88C226.6 89.56 226.89 89.25 227.21 88.97C227.52 88.68 227.86 88.42 228.21 88.18C228.56 87.95 228.93 87.73 229.31 87.55C229.69 87.36 230.08 87.2 230.49 87.06C230.97 86.89 231.47 86.74 231.97 86.61C232.47 86.47 232.98 86.37 233.49 86.28C233.99 86.19 234.51 86.13 235.02 86.09C235.54 86.05 236.06 86.03 236.57 86.04C237.18 86.03 237.79 86.05 238.4 86.11C239 86.16 239.61 86.25 240.2 86.37C240.8 86.48 241.39 86.63 241.97 86.81C242.55 87 243.13 87.21 243.69 87.45C244.28 87.76 244.85 88.11 245.39 88.51C245.94 88.91 246.44 89.35 246.92 89.83C247.39 90.31 247.82 90.82 248.22 91.37C248.61 91.91 248.96 92.49 249.26 93.09L267.71 126.27C269.42 129.35 271.06 132.53 272.64 135.82C274.22 139.1 275.61 142.12 276.81 144.85L277.32 144.72C276.89 139.68 276.62 134.79 276.49 130.05C276.36 125.31 276.3 120.63 276.3 116.02L276.3 86.94C276.98 86.77 278.03 86.57 279.44 86.36C279.79 86.31 280.15 86.26 280.5 86.22C280.86 86.18 281.22 86.15 281.58 86.12C281.93 86.09 282.29 86.07 282.65 86.06C283.01 86.05 283.37 86.04 283.73 86.04C286.89 86.04 289.13 86.62 290.45 87.77C291.78 88.92 292.44 90.87 292.44 93.6L292.44 162.79C292.16 163.05 291.86 163.29 291.54 163.52C291.23 163.74 290.9 163.94 290.56 164.13C290.22 164.31 289.86 164.47 289.5 164.61C289.14 164.75 288.78 164.87 288.4 164.96C287.89 165.1 287.38 165.22 286.87 165.32C286.36 165.42 285.84 165.5 285.32 165.57C284.8 165.63 284.28 165.68 283.76 165.7C283.23 165.73 282.71 165.74 282.19 165.73C281.59 165.74 280.99 165.72 280.4 165.67C279.8 165.61 279.21 165.53 278.63 165.42C278.04 165.3 277.46 165.16 276.89 164.99C276.32 164.82 275.75 164.62 275.2 164.39C273.11 163.49 271.25 161.63 269.63 158.81L251.18 125.63C249.47 122.64 247.83 119.46 246.25 116.09C244.67 112.71 243.28 109.66 242.08 106.92L241.31 107.05C241.74 111.75 242.02 116.58 242.15 121.53C242.28 126.48 242.34 131.18 242.34 135.62L242.34 164.71C241.65 164.88 240.63 165.09 239.26 165.35C238.91 165.41 238.54 165.47 238.18 165.52C237.82 165.57 237.46 165.61 237.1 165.64C236.73 165.67 236.37 165.7 236 165.71C235.64 165.73 235.27 165.73 234.91 165.73" />
			<path id="Layer" fill-rule="evenodd" class="shp1" d="M380.71 125.89C380.74 127.39 380.7 128.89 380.59 130.39C380.48 131.89 380.3 133.38 380.05 134.86C379.81 136.34 379.49 137.81 379.11 139.27C378.73 140.72 378.28 142.16 377.77 143.57C377.33 144.77 376.82 145.95 376.26 147.09C375.69 148.24 375.07 149.36 374.38 150.44C373.7 151.52 372.96 152.56 372.17 153.57C371.37 154.57 370.53 155.53 369.63 156.44C368.76 157.31 367.84 158.13 366.88 158.9C365.92 159.66 364.92 160.38 363.88 161.03C362.84 161.69 361.77 162.29 360.66 162.83C359.56 163.37 358.43 163.85 357.27 164.26C356.03 164.7 354.77 165.09 353.49 165.43C352.22 165.76 350.93 166.04 349.63 166.26C348.33 166.48 347.03 166.64 345.71 166.75C344.4 166.85 343.08 166.9 341.76 166.89C340.45 166.9 339.13 166.85 337.82 166.75C336.5 166.64 335.2 166.48 333.9 166.26C332.6 166.04 331.31 165.76 330.04 165.43C328.76 165.09 327.5 164.71 326.26 164.26C325.11 163.85 323.97 163.37 322.87 162.83C321.76 162.29 320.69 161.69 319.65 161.04C318.61 160.38 317.61 159.67 316.65 158.9C315.69 158.13 314.77 157.31 313.9 156.44C313.01 155.53 312.16 154.57 311.37 153.57C310.57 152.56 309.83 151.52 309.15 150.44C308.47 149.36 307.84 148.24 307.27 147.09C306.71 145.95 306.21 144.77 305.76 143.57C305.25 142.16 304.8 140.72 304.42 139.27C304.04 137.82 303.72 136.35 303.48 134.86C303.23 133.38 303.05 131.89 302.94 130.39C302.83 128.89 302.79 127.39 302.81 125.89C302.79 124.39 302.83 122.89 302.94 121.4C303.05 119.9 303.24 118.41 303.49 116.94C303.74 115.46 304.06 113.99 304.45 112.55C304.84 111.1 305.3 109.67 305.83 108.27C306.28 107.07 306.8 105.9 307.37 104.76C307.95 103.62 308.59 102.5 309.28 101.43C309.98 100.35 310.73 99.31 311.53 98.32C312.33 97.32 313.19 96.36 314.09 95.46C314.96 94.59 315.88 93.78 316.85 93.01C317.81 92.25 318.81 91.54 319.85 90.88C320.89 90.23 321.96 89.63 323.06 89.08C324.17 88.54 325.3 88.06 326.45 87.64C327.68 87.2 328.92 86.81 330.18 86.48C331.44 86.14 332.71 85.87 333.99 85.65C335.27 85.43 336.57 85.26 337.86 85.16C339.16 85.05 340.46 85 341.76 85.01C343.07 85 344.37 85.05 345.66 85.16C346.96 85.26 348.25 85.43 349.54 85.65C350.82 85.87 352.09 86.14 353.35 86.48C354.61 86.81 355.85 87.2 357.07 87.64C358.23 88.06 359.36 88.54 360.46 89.08C361.57 89.63 362.64 90.23 363.68 90.88C364.72 91.54 365.72 92.25 366.68 93.01C367.64 93.78 368.56 94.59 369.44 95.46C370.34 96.37 371.2 97.32 372 98.32C372.8 99.31 373.55 100.35 374.24 101.43C374.94 102.51 375.57 103.62 376.15 104.76C376.73 105.9 377.25 107.07 377.7 108.27C378.23 109.67 378.69 111.1 379.08 112.55C379.47 113.99 379.79 115.46 380.04 116.94C380.29 118.41 380.48 119.9 380.59 121.4C380.7 122.89 380.74 124.39 380.71 125.89ZM363.67 125.89C363.67 117 361.69 110.23 357.72 105.58C353.74 100.92 348.43 98.6 341.76 98.6C335.19 98.6 329.91 100.9 325.94 105.51C321.97 110.13 319.98 116.92 319.98 125.89C319.98 134.86 321.95 141.65 325.88 146.26C329.81 150.87 335.1 153.18 341.76 153.18C348.43 153.18 353.74 150.87 357.72 146.26C361.69 141.65 363.67 134.85 363.67 125.89Z" />
			<path id="Layer" class="shp1" d="M442.47 87.07C442.6 87.28 442.72 87.5 442.83 87.73C442.95 87.95 443.06 88.18 443.16 88.41C443.26 88.64 443.35 88.87 443.44 89.11C443.53 89.34 443.61 89.58 443.69 89.82C443.79 90.12 443.87 90.43 443.95 90.74C444.02 91.05 444.08 91.37 444.13 91.69C444.18 92 444.21 92.32 444.23 92.64C444.26 92.96 444.27 93.28 444.26 93.6C444.3 94.07 444.29 94.54 444.24 95C444.18 95.47 444.09 95.93 443.95 96.37C443.81 96.82 443.64 97.26 443.42 97.67C443.21 98.09 442.95 98.48 442.66 98.85C442.39 99.15 442.09 99.42 441.77 99.65C441.44 99.88 441.09 100.07 440.72 100.23C440.35 100.38 439.96 100.5 439.57 100.57C439.17 100.64 438.77 100.66 438.37 100.65L407.49 100.65L407.49 121.02L438.12 121.02C438.24 121.23 438.36 121.45 438.47 121.66C438.59 121.88 438.69 122.11 438.8 122.33C438.9 122.55 438.99 122.78 439.08 123.01C439.17 123.24 439.25 123.47 439.33 123.71C439.43 124.01 439.52 124.31 439.59 124.62C439.67 124.92 439.73 125.23 439.77 125.54C439.82 125.85 439.86 126.17 439.88 126.48C439.9 126.79 439.91 127.11 439.91 127.42C439.94 127.89 439.93 128.35 439.88 128.81C439.83 129.27 439.74 129.73 439.6 130.17C439.46 130.61 439.29 131.04 439.07 131.45C438.85 131.86 438.6 132.25 438.31 132.61C438.03 132.9 437.73 133.16 437.4 133.38C437.07 133.61 436.72 133.8 436.35 133.94C435.98 134.09 435.6 134.2 435.2 134.27C434.81 134.34 434.41 134.36 434.01 134.34L407.75 134.34L407.75 164.71C406.98 164.88 405.89 165.09 404.48 165.35C404.12 165.41 403.75 165.47 403.38 165.52C403.02 165.57 402.65 165.61 402.28 165.64C401.91 165.67 401.54 165.7 401.17 165.71C400.8 165.73 400.43 165.73 400.06 165.73C396.81 165.73 394.51 165.13 393.14 163.94C391.78 162.75 391.09 160.74 391.09 157.92L391.09 95.91C391.06 95.32 391.09 94.72 391.18 94.14C391.26 93.56 391.41 92.98 391.61 92.43C391.82 91.87 392.08 91.34 392.39 90.84C392.7 90.33 393.06 89.86 393.46 89.44C393.89 89.03 394.36 88.67 394.86 88.36C395.37 88.05 395.9 87.79 396.45 87.59C397.01 87.38 397.58 87.24 398.17 87.15C398.75 87.06 399.34 87.03 399.93 87.07L442.47 87.07Z" />
			<path id="Layer" fill-rule="evenodd" class="shp1" d="M496.54 146.51L467.84 146.51C466.9 149.68 465.89 152.96 464.83 156.38C463.76 159.8 462.89 162.61 462.2 164.84C461.98 164.93 461.75 165.01 461.52 165.09C461.3 165.17 461.07 165.25 460.84 165.33C460.61 165.4 460.38 165.48 460.15 165.54C459.91 165.61 459.68 165.68 459.45 165.74C459.15 165.81 458.85 165.87 458.54 165.92C458.24 165.97 457.94 166.01 457.63 166.04C457.33 166.08 457.02 166.1 456.72 166.11C456.41 166.12 456.1 166.13 455.79 166.12C455.2 166.16 454.61 166.14 454.02 166.09C453.43 166.03 452.84 165.93 452.27 165.78C451.69 165.64 451.13 165.45 450.58 165.21C450.04 164.98 449.51 164.71 449 164.39C448.61 164.12 448.25 163.8 447.94 163.43C447.63 163.07 447.36 162.67 447.15 162.24C446.94 161.81 446.78 161.36 446.68 160.89C446.59 160.42 446.55 159.94 446.57 159.46C446.57 159.2 446.58 158.95 446.6 158.7C446.62 158.44 446.64 158.19 446.68 157.94C446.72 157.68 446.77 157.43 446.82 157.19C446.88 156.94 446.94 156.69 447.02 156.45C447.32 155.47 447.68 154.34 448.11 153.05C448.79 150.66 449.71 147.78 450.86 144.4C452.01 141.03 453.25 137.36 454.58 133.39C455.9 129.41 457.33 125.31 458.87 121.09C460.41 116.86 461.88 112.76 463.29 108.79C464.7 104.81 466.07 101.1 467.39 97.64C468.72 94.18 469.85 91.21 470.79 88.73C471.18 88.54 471.58 88.36 471.99 88.19C472.39 88.02 472.8 87.86 473.21 87.71C473.62 87.56 474.04 87.42 474.46 87.29C474.88 87.16 475.3 87.05 475.72 86.94C476.26 86.79 476.8 86.66 477.35 86.55C477.89 86.44 478.44 86.34 478.99 86.27C479.54 86.19 480.1 86.14 480.65 86.1C481.21 86.06 481.77 86.04 482.32 86.04C483.02 86.03 483.72 86.05 484.41 86.11C485.1 86.16 485.79 86.24 486.48 86.36C487.17 86.47 487.85 86.61 488.52 86.78C489.2 86.95 489.87 87.16 490.52 87.39C491.06 87.54 491.57 87.75 492.05 88.01C492.54 88.28 492.99 88.6 493.4 88.98C493.81 89.35 494.17 89.76 494.49 90.22C494.8 90.67 495.06 91.16 495.26 91.68C496.97 96.38 498.84 101.78 500.89 107.88C502.94 113.99 505.02 120.29 507.11 126.78C509.2 133.28 511.23 139.64 513.19 145.88C515.16 152.11 516.91 157.71 518.45 162.66C518.2 162.92 517.94 163.16 517.67 163.39C517.39 163.62 517.11 163.84 516.81 164.03C516.52 164.23 516.21 164.42 515.89 164.58C515.58 164.75 515.25 164.9 514.92 165.03C514.5 165.2 514.07 165.35 513.64 165.47C513.2 165.6 512.76 165.7 512.31 165.78C511.87 165.86 511.42 165.92 510.96 165.95C510.51 165.99 510.06 166 509.61 165.99C506.62 165.99 504.5 165.46 503.26 164.39C502.91 164.05 502.58 163.68 502.28 163.29C501.98 162.9 501.71 162.49 501.46 162.07C501.22 161.64 501 161.19 500.82 160.74C500.64 160.28 500.5 159.81 500.38 159.33L496.54 146.51ZM482.19 100.65C481.42 102.78 480.58 105.17 479.69 107.82C478.79 110.47 477.85 113.23 476.87 116.08C475.89 118.95 474.88 121.85 473.86 124.8C472.84 127.74 471.85 130.63 470.91 133.45L493.21 133.45L482.83 100.65L482.19 100.65Z" />
			<path id="Layer" fill-rule="evenodd" class="shp1" d="M542.79 164.71C542.02 164.87 540.93 165.09 539.52 165.35C539.14 165.41 538.77 165.47 538.39 165.52C538.01 165.57 537.63 165.61 537.25 165.64C536.88 165.67 536.49 165.7 536.11 165.71C535.73 165.73 535.35 165.73 534.97 165.73C531.73 165.73 529.44 165.13 528.12 163.94C526.79 162.74 526.13 160.73 526.13 157.91L526.13 93.6C526.11 93.26 526.12 92.93 526.16 92.59C526.21 92.26 526.28 91.93 526.39 91.61C526.5 91.29 526.65 90.99 526.82 90.7C526.99 90.41 527.19 90.13 527.41 89.88C527.67 89.65 527.93 89.43 528.21 89.22C528.49 89.01 528.79 88.82 529.09 88.65C529.39 88.48 529.7 88.32 530.02 88.19C530.34 88.05 530.67 87.93 531 87.83C531.78 87.58 532.58 87.34 533.37 87.13C534.17 86.92 534.97 86.73 535.78 86.57C536.59 86.4 537.4 86.26 538.22 86.14C539.03 86.02 539.85 85.92 540.67 85.85C541.63 85.75 542.58 85.67 543.53 85.59C544.49 85.52 545.44 85.46 546.4 85.41C547.35 85.36 548.31 85.33 549.27 85.31C550.22 85.28 551.18 85.27 552.14 85.27C563.41 85.27 571.87 87.6 577.5 92.25C583.14 96.91 585.96 103.34 585.96 111.54C585.99 112.78 585.92 114.02 585.75 115.25C585.59 116.48 585.32 117.7 584.96 118.89C584.61 120.08 584.16 121.24 583.61 122.36C583.07 123.47 582.45 124.55 581.74 125.57C581 126.58 580.2 127.54 579.33 128.45C578.46 129.35 577.53 130.19 576.55 130.96C575.56 131.74 574.53 132.44 573.44 133.07C572.36 133.7 571.24 134.25 570.08 134.73C573.84 139.59 577.44 144.23 580.9 148.63C584.36 153.03 586.95 156.47 588.66 158.94C588.51 159.46 588.32 159.96 588.1 160.44C587.87 160.93 587.6 161.39 587.3 161.83C586.99 162.28 586.65 162.69 586.28 163.07C585.9 163.46 585.5 163.81 585.07 164.13C584.66 164.43 584.24 164.7 583.79 164.93C583.34 165.16 582.88 165.36 582.4 165.52C581.92 165.67 581.43 165.79 580.93 165.87C580.44 165.95 579.93 165.99 579.43 165.99C578.89 166.02 578.35 166.01 577.81 165.95C577.28 165.89 576.75 165.79 576.23 165.63C575.71 165.48 575.21 165.28 574.72 165.04C574.24 164.8 573.78 164.52 573.35 164.19C572.94 163.84 572.56 163.47 572.18 163.09C571.8 162.71 571.44 162.31 571.09 161.9C570.75 161.5 570.41 161.08 570.09 160.65C569.77 160.22 569.47 159.78 569.18 159.33L554.7 137.67L542.79 137.67L542.79 164.71ZM553.04 124.61C557.9 124.61 561.81 123.54 564.76 121.41C567.71 119.27 569.18 116.03 569.18 111.67C569.18 103.04 563.41 98.73 551.88 98.73C551.47 98.73 551.06 98.73 550.65 98.74C550.23 98.75 549.82 98.77 549.41 98.79C549 98.81 548.59 98.84 548.18 98.87C547.77 98.9 547.36 98.94 546.95 98.98C545.37 99.16 543.89 99.33 542.53 99.5L542.53 124.61L553.04 124.61Z" />
			<path id="Layer" class="shp1" d="M646.83 145.23C646.58 145.42 646.32 145.6 646.05 145.76C645.79 145.93 645.52 146.08 645.24 146.22C644.96 146.36 644.67 146.49 644.38 146.6C644.09 146.71 643.8 146.81 643.5 146.9C643.11 147.01 642.72 147.11 642.33 147.19C641.94 147.28 641.55 147.34 641.15 147.4C640.75 147.45 640.35 147.49 639.95 147.51C639.55 147.54 639.15 147.55 638.75 147.54C638.28 147.55 637.81 147.54 637.34 147.52C636.87 147.49 636.4 147.44 635.93 147.37C635.46 147.3 635 147.21 634.54 147.1C634.08 146.99 633.63 146.86 633.18 146.71C632.83 146.58 632.49 146.42 632.17 146.23C631.85 146.03 631.55 145.8 631.28 145.54C631.01 145.29 630.77 145 630.56 144.69C630.35 144.38 630.18 144.04 630.04 143.69C626.54 134.98 623.59 127.55 621.2 121.4C618.81 115.25 616.89 110 615.44 105.64L614.8 105.64C614.54 111.37 614.3 116.62 614.09 121.4C613.88 126.18 613.68 130.86 613.51 135.43C613.34 140 613.15 144.64 612.94 149.33C612.72 154.03 612.45 159.11 612.1 164.58C611.25 164.84 610.18 165.09 608.9 165.35C608.57 165.41 608.23 165.47 607.89 165.52C607.55 165.57 607.21 165.61 606.86 165.64C606.52 165.67 606.18 165.7 605.83 165.71C605.49 165.73 605.15 165.73 604.8 165.73C599.08 165.73 596.22 163.6 596.22 159.33C596.22 157.96 596.28 155.85 596.41 152.98C596.54 150.12 596.71 146.79 596.92 142.99C597.14 139.19 597.39 135.03 597.69 130.5C597.99 125.97 598.29 121.4 598.59 116.79C598.89 112.18 599.21 107.63 599.55 103.14C599.9 98.66 600.2 94.5 600.45 90.65C600.72 90.37 601 90.1 601.29 89.85C601.58 89.6 601.89 89.36 602.2 89.14C602.52 88.92 602.85 88.72 603.19 88.53C603.52 88.34 603.87 88.18 604.23 88.02C604.78 87.78 605.35 87.57 605.94 87.39C606.52 87.21 607.11 87.06 607.71 86.95C608.3 86.84 608.91 86.76 609.51 86.71C610.12 86.67 610.73 86.66 611.34 86.68C612.01 86.65 612.69 86.66 613.37 86.72C614.04 86.77 614.71 86.87 615.37 87C616.04 87.14 616.69 87.31 617.33 87.52C617.98 87.74 618.61 87.99 619.22 88.28C619.74 88.57 620.23 88.91 620.69 89.29C621.15 89.66 621.58 90.08 621.97 90.53C622.35 90.99 622.7 91.47 623 91.99C623.3 92.5 623.56 93.04 623.77 93.6C624.88 96.25 626.05 99.15 627.29 102.31C628.53 105.47 629.79 108.71 631.07 112.05C632.35 115.38 633.61 118.65 634.85 121.85C636.09 125.05 637.26 128.06 638.37 130.88L638.88 130.88C641.79 122.85 644.67 115.08 647.53 107.56C650.39 100.05 652.89 93.68 655.03 88.47C655.34 88.33 655.66 88.19 655.99 88.06C656.31 87.93 656.64 87.82 656.97 87.71C657.3 87.6 657.64 87.51 657.98 87.42C658.32 87.33 658.66 87.26 659 87.19C659.41 87.11 659.82 87.03 660.24 86.97C660.65 86.9 661.07 86.85 661.49 86.81C661.9 86.76 662.32 86.73 662.74 86.71C663.16 86.69 663.58 86.68 664 86.68C664.64 86.65 665.29 86.66 665.94 86.71C666.58 86.75 667.22 86.83 667.86 86.95C668.5 87.07 669.12 87.23 669.74 87.42C670.36 87.61 670.97 87.83 671.56 88.09C671.99 88.28 672.4 88.53 672.77 88.81C673.15 89.1 673.49 89.43 673.79 89.8C674.09 90.16 674.34 90.56 674.55 90.98C674.76 91.41 674.91 91.86 675.02 92.32C675.36 93.94 675.74 96.52 676.17 100.07C676.6 103.61 677.03 107.65 677.45 112.18C677.88 116.7 678.31 121.53 678.73 126.65C679.16 131.78 679.54 136.71 679.89 141.45C680.23 146.2 680.53 150.53 680.79 154.46C681.05 158.39 681.22 161.46 681.3 163.68C681.03 163.85 680.75 164.01 680.46 164.16C680.18 164.31 679.89 164.45 679.59 164.58C679.3 164.71 679 164.83 678.69 164.93C678.39 165.04 678.08 165.14 677.77 165.22C677.4 165.31 677.03 165.39 676.65 165.46C676.28 165.53 675.9 165.59 675.52 165.63C675.14 165.67 674.76 165.7 674.37 165.72C673.99 165.74 673.61 165.74 673.23 165.73C672.72 165.75 672.22 165.73 671.72 165.67C671.22 165.62 670.72 165.54 670.23 165.43C669.74 165.31 669.25 165.17 668.78 165C668.31 164.82 667.84 164.62 667.4 164.39C665.73 163.49 664.81 161.81 664.64 159.33C664.3 153.95 664 148.67 663.74 143.51C663.49 138.34 663.27 133.45 663.1 128.83C662.93 124.22 662.76 119.97 662.59 116.08C662.41 112.2 662.29 108.85 662.2 106.03L661.56 106.03C660.19 110.04 658.31 115.14 655.93 121.33C653.54 127.52 650.5 135.49 646.83 145.23Z" />
			<path id="Layer" class="shp0" d="M87.22 40.38C87.54 40.2 87.91 40.14 88.27 40.2C88.63 40.26 88.96 40.43 89.2 40.7C89.45 40.97 89.6 41.31 89.63 41.67C89.66 42.03 89.57 42.4 89.38 42.7C81.33 55.03 74.58 67.2 69.96 79.8C69.31 81.54 68.71 83.29 68.15 85.06C67.59 86.83 67.08 88.62 66.62 90.41C66.16 92.21 65.75 94.02 65.39 95.84C65.02 97.66 64.71 99.49 64.45 101.32C64.15 103.09 64.08 104.85 63.87 106.59C63.85 106.74 63.84 106.89 63.83 107.03C63.81 107.18 63.8 107.33 63.79 107.47C63.79 107.62 63.78 107.77 63.78 107.92C63.77 108.07 63.77 108.21 63.77 108.36C63.77 109.73 63.68 110.61 63.69 112.06L63.4 124.44L62.82 136.82C62.52 140.96 62.31 145.02 61.94 149.22C61.75 151.53 61.45 153.82 61.04 156.1C60.64 158.38 60.13 160.64 59.53 162.87C58.93 165.11 58.22 167.31 57.42 169.48C56.62 171.65 55.72 173.79 54.73 175.88C53.79 177.89 52.77 179.86 51.68 181.8C50.59 183.73 49.43 185.63 48.2 187.47C46.97 189.32 45.66 191.12 44.3 192.87C42.93 194.62 41.49 196.32 40 197.96C38.52 199.57 36.99 201.12 35.44 202.63C33.89 204.06 32.37 205.5 30.78 206.89C29.1 208.42 27.38 209.91 25.62 211.38C25.35 211.6 25.01 211.72 24.66 211.73C24.31 211.74 23.97 211.64 23.69 211.43C23.41 211.22 23.2 210.93 23.11 210.59C23.01 210.25 23.03 209.89 23.16 209.57C24.03 207.45 24.94 205.37 25.89 203.31C26.75 201.38 27.67 199.49 28.57 197.59C29.41 195.74 30.29 193.94 31.05 192.09C31.84 190.32 32.6 188.52 33.31 186.72C34.02 184.91 34.69 183.09 35.32 181.25C35.95 179.41 36.55 177.56 37.1 175.7C37.65 173.83 38.16 171.96 38.63 170.07C39.08 168.31 39.47 166.52 39.81 164.73C40.15 162.94 40.43 161.13 40.65 159.32C40.88 157.51 41.04 155.69 41.15 153.87C41.26 152.05 41.31 150.22 41.3 148.4L41.33 136.06L41.64 123.68L42.23 111.31C42.28 110.35 42.41 109.06 42.53 107.91C42.65 106.73 42.73 105.54 42.91 104.38C42.99 103.79 43.07 103.21 43.17 102.64C43.26 102.06 43.36 101.48 43.47 100.9C43.58 100.33 43.7 99.75 43.82 99.18C43.94 98.61 44.07 98.04 44.21 97.47C44.74 95.24 45.36 93.04 46.06 90.87C46.76 88.7 47.55 86.56 48.43 84.45C49.3 82.34 50.26 80.26 51.3 78.23C52.34 76.2 53.46 74.21 54.66 72.27C56.66 68.99 58.86 65.84 61.25 62.83C63.63 59.83 66.21 56.97 68.95 54.29C71.69 51.6 74.6 49.09 77.65 46.76C80.71 44.44 83.9 42.3 87.22 40.38" />
			<path id="Layer" class="shp1" d="M4.43 111.1L102.81 111.1C103.82 111.1 104.81 111.39 105.67 111.92C106.54 112.45 107.23 113.22 107.68 114.12C108.14 115.03 108.33 116.04 108.24 117.05C108.14 118.06 107.77 119.03 107.16 119.84L102.81 125.62C102.34 126.23 101.87 126.82 101.38 127.41C100.89 128 100.39 128.57 99.88 129.14C99.37 129.7 98.84 130.25 98.31 130.79C97.77 131.33 97.22 131.86 96.66 132.38C95.63 133.39 94.61 134.19 93.58 135.1C92.56 135.9 91.53 136.72 90.51 137.49C89.55 138.19 88.58 138.86 87.59 139.51C86.6 140.15 85.59 140.76 84.56 141.35C83.53 141.94 82.49 142.49 81.43 143.02C80.37 143.54 79.3 144.04 78.21 144.5C76.28 145.32 74.3 146.04 72.29 146.64C70.27 147.25 68.23 147.74 66.16 148.13C64.1 148.51 62.01 148.78 59.92 148.93C57.82 149.09 55.72 149.13 53.62 149.06C51.51 149.01 49.4 148.85 47.31 148.6C45.21 148.35 43.13 147.99 41.07 147.54C39 147.09 36.96 146.54 34.95 145.9C32.94 145.25 30.97 144.51 29.03 143.68C26.98 142.78 24.93 141.79 22.88 140.65C21.85 140.07 20.83 139.49 19.8 138.81C18.78 138.13 17.75 137.56 16.73 136.78C16.19 136.41 15.66 136.03 15.14 135.64C14.61 135.25 14.1 134.85 13.58 134.45C13.07 134.04 12.56 133.63 12.06 133.21C11.56 132.79 11.07 132.37 10.58 131.93C10.03 131.45 9.48 130.96 8.95 130.45C8.41 129.95 7.89 129.43 7.37 128.9C6.86 128.38 6.36 127.84 5.87 127.29C5.38 126.75 4.9 126.19 4.43 125.62L0.07 120.26C-0.39 119.69 -0.74 119.03 -0.95 118.32C-1.16 117.62 -1.23 116.88 -1.15 116.14C-1.08 115.41 -0.86 114.7 -0.51 114.05C-0.16 113.4 0.32 112.83 0.89 112.36C1.14 112.16 1.4 111.98 1.68 111.82C1.96 111.67 2.25 111.53 2.55 111.43C2.85 111.32 3.16 111.24 3.48 111.18C3.79 111.13 4.11 111.1 4.43 111.1" />
		</g>
	</g>
</svg>