<svg xmlns="http://www.w3.org/2000/svg" xmlns:xlink="http://www.w3.org/1999/xlink" viewBox="0 0 469.52 103.95"><defs><style>.cls-1{fill:url(#linear-gradient);}.cls-2{fill:#fff;}.cls-3{fill:#7fc9ef;}</style><linearGradient id="linear-gradient" y1="51.98" x2="469.52" y2="51.98" gradientUnits="userSpaceOnUse"><stop offset="0.09" stop-color="#3456a5"/><stop offset="1" stop-color="#3d63bf"/></linearGradient></defs><g id="Layer_2" data-name="Layer 2"><g id="Layer_1-2" data-name="Layer 1"><path class="cls-1" d="M83,0H469.52a0,0,0,0,1,0,0V21a83,83,0,0,1-83,83H0a0,0,0,0,1,0,0V83A83,83,0,0,1,83,0Z"/><path class="cls-2" d="M89.24,64.6a10.38,10.38,0,0,1-4.17,8.75Q80.9,76.51,73,76.52a34,34,0,0,1-6-.5,19.29,19.29,0,0,1-4.71-1.42,8.83,8.83,0,0,1-3-2.17,4.11,4.11,0,0,1-1.08-2.75,4.54,4.54,0,0,1,.62-2.33,4.94,4.94,0,0,1,1.71-1.75,34,34,0,0,0,5.33,2.75,18.24,18.24,0,0,0,7,1.25,10.62,10.62,0,0,0,5.75-1.29,4.16,4.16,0,0,0,2-3.71,4.33,4.33,0,0,0-1.37-3.34,9.33,9.33,0,0,0-4-1.91l-5.67-1.5q-5.67-1.51-8.33-4.09a9.39,9.39,0,0,1-2.67-7.09,10.49,10.49,0,0,1,1-4.54,10.11,10.11,0,0,1,3-3.67A14.57,14.57,0,0,1,67.32,36,23.3,23.3,0,0,1,74,35.17a29.51,29.51,0,0,1,5.46.46,19.13,19.13,0,0,1,4.25,1.25,7.76,7.76,0,0,1,2.79,2,3.76,3.76,0,0,1,1,2.5,4.31,4.31,0,0,1-.58,2.29,4.7,4.7,0,0,1-1.5,1.54,27.2,27.2,0,0,0-4.46-2,18.5,18.5,0,0,0-6.38-1.08,10.56,10.56,0,0,0-5.5,1.21,3.74,3.74,0,0,0-2,3.37,3.67,3.67,0,0,0,1.12,2.76,8.62,8.62,0,0,0,3.88,1.75l4.83,1.25q6.34,1.66,9.34,4.5A10,10,0,0,1,89.24,64.6Z"/><path class="cls-2" d="M96.24,24.33a4.88,4.88,0,0,1,1.5-3.63,5.3,5.3,0,0,1,3.84-1.45,5.09,5.09,0,1,1,0,10.17A5.31,5.31,0,0,1,97.74,28,4.85,4.85,0,0,1,96.24,24.33Zm9.68,50.86a9.48,9.48,0,0,1-1.63.45,12.18,12.18,0,0,1-2.38.21,5.77,5.77,0,0,1-3.58-.91,3.71,3.71,0,0,1-1.17-3.09V36.59l1.71-.42a10.05,10.05,0,0,1,2.38-.25,5.58,5.58,0,0,1,3.54.92A3.86,3.86,0,0,1,105.92,40Z"/><path class="cls-2" d="M140.3,44.09a9.36,9.36,0,0,0-6.21-1.92,16.76,16.76,0,0,0-5.21.75,23.24,23.24,0,0,0-4,1.67v30.6a9.33,9.33,0,0,1-1.62.45,11.69,11.69,0,0,1-2.3.21,5.77,5.77,0,0,1-3.58-.91,3.71,3.71,0,0,1-1.17-3.09V44.34a5.65,5.65,0,0,1,.75-3.09,8.78,8.78,0,0,1,2.5-2.33,27.74,27.74,0,0,1,6.09-2.58,28.5,28.5,0,0,1,8.5-1.17q8.08,0,12.67,3.63t4.59,11V75.19a9.33,9.33,0,0,1-1.67.45,12.23,12.23,0,0,1-2.33.21,5.8,5.8,0,0,1-3.59-.91,3.7,3.7,0,0,1-1.16-3.09V50.09Q142.6,46,140.3,44.09Z"/><path class="cls-2" d="M198.7,55.84a24.49,24.49,0,0,1-1.42,8.59,18.4,18.4,0,0,1-4,6.5,17.13,17.13,0,0,1-6.21,4.13,23.59,23.59,0,0,1-16.34,0,17.3,17.3,0,0,1-6.21-4.13,18.7,18.7,0,0,1-4-6.5,24.73,24.73,0,0,1-1.41-8.59,24.71,24.71,0,0,1,1.41-8.58,18.47,18.47,0,0,1,4-6.51,17.79,17.79,0,0,1,6.26-4.12,23.12,23.12,0,0,1,16.17,0,17.25,17.25,0,0,1,6.25,4.17,18.74,18.74,0,0,1,4,6.5A24.17,24.17,0,0,1,198.7,55.84ZM178.94,42.17A9.69,9.69,0,0,0,171,45.76q-2.91,3.59-2.91,10.08t2.83,10a10.82,10.82,0,0,0,16,0q2.84-3.54,2.83-10t-2.87-10A9.61,9.61,0,0,0,178.94,42.17Z"/><path class="cls-3" d="M253,43.88a8.36,8.36,0,0,0-5.54-1.71,11.48,11.48,0,0,0-4.46.88,14.19,14.19,0,0,0-3.88,2.37,8.94,8.94,0,0,1,.25,1.42,12.58,12.58,0,0,1,.09,1.5V75.19a9.33,9.33,0,0,1-1.67.45,11.77,11.77,0,0,1-2.25.21,5.8,5.8,0,0,1-3.59-.91,3.73,3.73,0,0,1-1.16-3.09V49.26q0-3.67-2.09-5.38a8.53,8.53,0,0,0-5.58-1.71,12.94,12.94,0,0,0-4.42.75,17.08,17.08,0,0,0-3.5,1.67v30.6a9.23,9.23,0,0,1-1.63.45,11.59,11.59,0,0,1-2.29.21,5.75,5.75,0,0,1-3.58-.91,3.71,3.71,0,0,1-1.17-3.09V44.34a5.65,5.65,0,0,1,.75-3.09,8.64,8.64,0,0,1,2.5-2.33,23.38,23.38,0,0,1,6.09-2.67,26.05,26.05,0,0,1,7.41-1.08,21.52,21.52,0,0,1,7.05,1.08,12.92,12.92,0,0,1,5.13,3.17,20.51,20.51,0,0,1,5.54-3,21,21,0,0,1,7.46-1.21,22.47,22.47,0,0,1,6.09.79,12.87,12.87,0,0,1,4.87,2.5,11.67,11.67,0,0,1,3.21,4.3,14.85,14.85,0,0,1,1.17,6.16V75.19a12.07,12.07,0,0,1-1.71.45,11.59,11.59,0,0,1-2.29.21,5.8,5.8,0,0,1-3.59-.91,3.73,3.73,0,0,1-1.16-3.09V49.26Q255.06,45.59,253,43.88Z"/><path class="cls-3" d="M280.48,60.26A11.42,11.42,0,0,0,285,67.31a15,15,0,0,0,8.63,2.29,18.4,18.4,0,0,0,6.42-1.08,20.13,20.13,0,0,0,4.66-2.34,4.14,4.14,0,0,1,2.34,3.75A3.88,3.88,0,0,1,306,72.56a9,9,0,0,1-3,2.08A18.86,18.86,0,0,1,298.62,76a28.63,28.63,0,0,1-5.46.5,27.69,27.69,0,0,1-8.8-1.33,18.27,18.27,0,0,1-6.79-4,17.84,17.84,0,0,1-4.38-6.58,24.66,24.66,0,0,1-1.54-9.09,23.77,23.77,0,0,1,1.5-8.79,18.15,18.15,0,0,1,4.08-6.34,17.52,17.52,0,0,1,6.09-3.88,20.84,20.84,0,0,1,7.5-1.33,19.88,19.88,0,0,1,7.3,1.29,17.09,17.09,0,0,1,5.67,3.59,15.81,15.81,0,0,1,3.66,5.46,18,18,0,0,1,1.3,6.92,4.07,4.07,0,0,1-1,3,5.46,5.46,0,0,1-2.92,1.29Zm10.34-18.34A10.27,10.27,0,0,0,283.19,45c-2,2.05-3.1,5-3.21,8.83l20.51-2.91a10.49,10.49,0,0,0-2.75-6.38A8.94,8.94,0,0,0,290.82,41.92Z"/><path class="cls-3" d="M333.59,35.17a19.75,19.75,0,0,1,4.71.54,18.51,18.51,0,0,1,3.88,1.38V21.25c.38-.11.94-.25,1.66-.42a10.18,10.18,0,0,1,2.34-.25,5.77,5.77,0,0,1,3.58.92,3.69,3.69,0,0,1,1.17,3.08V68.27a5.08,5.08,0,0,1-.75,2.87,7.68,7.68,0,0,1-2.34,2.13,20.69,20.69,0,0,1-5.21,2.25,25.84,25.84,0,0,1-7.54,1,29.16,29.16,0,0,1-8.67-1.21A16.35,16.35,0,0,1,315.5,65.14,25.24,25.24,0,0,1,314,56a25.79,25.79,0,0,1,1.54-9.38,17.72,17.72,0,0,1,4.21-6.5A16.72,16.72,0,0,1,326,36.38,23.38,23.38,0,0,1,333.59,35.17Zm8.67,9.25a15.46,15.46,0,0,0-3.34-1.58,13,13,0,0,0-4.25-.67,13.73,13.73,0,0,0-4.62.75,9.09,9.09,0,0,0-3.71,2.46,12.15,12.15,0,0,0-2.5,4.34,19.18,19.18,0,0,0-.92,6.37q0,7,3.29,10.18a12.17,12.17,0,0,0,8.8,3.16,14.17,14.17,0,0,0,4.21-.54,16.35,16.35,0,0,0,3-1.29Z"/><path class="cls-3" d="M360.43,24.33a4.88,4.88,0,0,1,1.5-3.63,5.28,5.28,0,0,1,3.84-1.45,5.09,5.09,0,1,1,0,10.17A5.29,5.29,0,0,1,361.93,28,4.85,4.85,0,0,1,360.43,24.33Zm9.67,50.86a9.33,9.33,0,0,1-1.62.45,12.18,12.18,0,0,1-2.38.21,5.75,5.75,0,0,1-3.58-.91,3.71,3.71,0,0,1-1.17-3.09V36.59l1.71-.42a10,10,0,0,1,2.37-.25,5.59,5.59,0,0,1,3.55.92A3.86,3.86,0,0,1,370.1,40Z"/><path class="cls-3" d="M399.62,42.26a13.53,13.53,0,0,0-4.92.87,10.25,10.25,0,0,0-3.88,2.63,12.69,12.69,0,0,0-2.58,4.29,16.63,16.63,0,0,0-1,5.88q0,6.59,3.42,10a12,12,0,0,0,8.92,3.46A15.5,15.5,0,0,0,405,68.6a17.13,17.13,0,0,0,3.92-2,6,6,0,0,1,1.75,1.58,3.7,3.7,0,0,1,.67,2.25c0,1.73-1.12,3.17-3.38,4.34a19.27,19.27,0,0,1-8.87,1.75,26.7,26.7,0,0,1-8.38-1.25,17.28,17.28,0,0,1-6.55-3.84A17.67,17.67,0,0,1,379.9,65a24.31,24.31,0,0,1-1.54-9A23.64,23.64,0,0,1,380,46.84a17.77,17.77,0,0,1,11-10.38,24.18,24.18,0,0,1,7.92-1.29,22.81,22.81,0,0,1,5,.5A14.48,14.48,0,0,1,407.62,37a8.16,8.16,0,0,1,2.46,2,3.8,3.8,0,0,1,.25,4.5A4.37,4.37,0,0,1,408.79,45a23.76,23.76,0,0,0-3.88-1.92A14.5,14.5,0,0,0,399.62,42.26Z"/></g></g></svg>