<svg xmlns="http://www.w3.org/2000/svg" xmlns:xlink="http://www.w3.org/1999/xlink" viewBox="0 0 396 104"><defs><linearGradient id="linear-gradient" y1="52" x2="396" y2="52" gradientUnits="userSpaceOnUse"><stop offset="0.09" stop-color="#3456a5"/><stop offset="1" stop-color="#3d63bf"/></linearGradient></defs><g id="Layer_2" data-name="Layer 2"><g id="Layer_1-2" data-name="Layer 1"><path d="M83,0H396a0,0,0,0,1,0,0V21a83,83,0,0,1-83,83H0a0,0,0,0,1,0,0V83A83,83,0,0,1,83,0Z" fill="url(#linear-gradient)"/><path d="M74.81,64.43a11.06,11.06,0,0,1-4.44,9.32q-4.44,3.38-12.87,3.37a35.45,35.45,0,0,1-6.39-.53,20.33,20.33,0,0,1-5-1.51,9.56,9.56,0,0,1-3.24-2.31,4.36,4.36,0,0,1-1.16-2.93,4.94,4.94,0,0,1,.67-2.48,5.26,5.26,0,0,1,1.82-1.87,35,35,0,0,0,5.68,2.93,19.25,19.25,0,0,0,7.46,1.34,11.27,11.27,0,0,0,6.12-1.38,4.43,4.43,0,0,0,2.13-3.95,4.58,4.58,0,0,0-1.46-3.55,9.85,9.85,0,0,0-4.31-2l-6-1.6q-6-1.6-8.87-4.35a10,10,0,0,1-2.84-7.54,11.22,11.22,0,0,1,1.06-4.84,10.83,10.83,0,0,1,3.15-3.91A15.61,15.61,0,0,1,51.47,34a24.78,24.78,0,0,1,7.1-.93,32.27,32.27,0,0,1,5.81.48,20.86,20.86,0,0,1,4.53,1.33,8.29,8.29,0,0,1,3,2.09A4,4,0,0,1,73,39.66a4.67,4.67,0,0,1-.62,2.45,5.12,5.12,0,0,1-1.6,1.64A28.43,28.43,0,0,0,66,41.62a19.56,19.56,0,0,0-6.79-1.16,11.29,11.29,0,0,0-5.86,1.29,4,4,0,0,0-2.13,3.6,3.86,3.86,0,0,0,1.2,2.92,9,9,0,0,0,4.13,1.87l5.15,1.33q6.74,1.77,9.94,4.79A10.72,10.72,0,0,1,74.81,64.43Z" fill="#fff"/><path d="M82.27,21.56a5.18,5.18,0,0,1,1.6-3.87A5.61,5.61,0,0,1,88,16.14a5.24,5.24,0,0,1,5.5,5.42A5.24,5.24,0,0,1,88,27a5.61,5.61,0,0,1-4.08-1.55A5.15,5.15,0,0,1,82.27,21.56ZM92,75a9.58,9.58,0,0,1-1.67.47,12.83,12.83,0,0,1-2.44.21,5.93,5.93,0,0,1-3.69-.94A3.81,3.81,0,0,1,83,71.57V35.31l1.76-.43a10.59,10.59,0,0,1,2.44-.25,5.71,5.71,0,0,1,3.64.94A4,4,0,0,1,92,38.83Z" fill="#fff"/><path d="M129.53,42.57a10.08,10.08,0,0,0-6.67-2.06,17.89,17.89,0,0,0-5.6.81A24.6,24.6,0,0,0,113,43.11V75.67a8.82,8.82,0,0,1-1.69.47,11.68,11.68,0,0,1-2.38.22,6,6,0,0,1-3.72-1,3.83,3.83,0,0,1-1.21-3.2V42.84a5.9,5.9,0,0,1,.79-3.25,9.08,9.08,0,0,1,2.64-2.46,29.1,29.1,0,0,1,6.41-2.73,30.21,30.21,0,0,1,9-1.23q8.52,0,13.36,3.83c3.22,2.54,4.83,6.4,4.83,11.55v27.1a8.57,8.57,0,0,1-1.71.48,13.07,13.07,0,0,1-2.4.21,6,6,0,0,1-3.69-.94,3.81,3.81,0,0,1-1.2-3.17V49Q132,44.64,129.53,42.57Z" fill="#fff"/><path d="M191.36,55.11a26.12,26.12,0,0,1-1.51,9.14,20,20,0,0,1-4.22,6.93A18.45,18.45,0,0,1,179,75.57a25.19,25.19,0,0,1-17.4,0A18.54,18.54,0,0,1,155,71.18a20.12,20.12,0,0,1-4.22-6.93,26.35,26.35,0,0,1-1.5-9.14,26.35,26.35,0,0,1,1.5-9.14A19.75,19.75,0,0,1,155.05,39a19,19,0,0,1,6.66-4.39,24.69,24.69,0,0,1,17.22,0,18.42,18.42,0,0,1,6.66,4.44A20.17,20.17,0,0,1,189.85,46,25.77,25.77,0,0,1,191.36,55.11Zm-21-14.56a10.28,10.28,0,0,0-8.43,3.82q-3.1,3.81-3.11,10.74t3,10.7a11.51,11.51,0,0,0,17,0q3-3.78,3-10.7t-3.06-10.7A10.23,10.23,0,0,0,170.32,40.55Z" fill="#fff"/><path d="M209,37h16.1a6.28,6.28,0,0,1,.65,1.39,6.45,6.45,0,0,1,.3,2.07q0,3.54-3.29,3.54H209V73.86a8.92,8.92,0,0,1-1.69.46,12.47,12.47,0,0,1-2.38.21,6.1,6.1,0,0,1-3.72-.93A3.66,3.66,0,0,1,200,70.48V31.76a18.45,18.45,0,0,1,1.2-7A12.15,12.15,0,0,1,204.63,20a14.23,14.23,0,0,1,5.4-2.75,25.47,25.47,0,0,1,7-.89c3.68,0,6.51.47,8.47,1.42s2.94,2.28,2.94,4a4.7,4.7,0,0,1-.49,2.18,6.64,6.64,0,0,1-1.21,1.64,25.23,25.23,0,0,0-3.92-1.24,19.18,19.18,0,0,0-4.54-.54c-3.33,0-5.71.66-7.13,2S209,29.16,209,32.12Zm26.21-15.44a5.18,5.18,0,0,1,1.6-3.87,5.61,5.61,0,0,1,4.08-1.55,5.24,5.24,0,0,1,5.5,5.42,5.24,5.24,0,0,1-5.5,5.41,5.61,5.61,0,0,1-4.08-1.55A5.15,5.15,0,0,1,235.21,21.56ZM245,75a8.77,8.77,0,0,1-1.67.47,12.83,12.83,0,0,1-2.44.21,5.93,5.93,0,0,1-3.69-.94,3.79,3.79,0,0,1-1.2-3.17V35.31l1.76-.43a10.55,10.55,0,0,1,2.44-.26,5.71,5.71,0,0,1,3.64,1A4,4,0,0,1,245,38.82Z" fill="#7fc9ef"/><path d="M282.53,42.57a10.08,10.08,0,0,0-6.67-2.06,17.89,17.89,0,0,0-5.6.81A24.6,24.6,0,0,0,266,43.11V75.67a8.82,8.82,0,0,1-1.69.47,11.68,11.68,0,0,1-2.38.22,6,6,0,0,1-3.72-1,3.83,3.83,0,0,1-1.21-3.2V42.84a5.9,5.9,0,0,1,.79-3.25,9.08,9.08,0,0,1,2.64-2.46,29.1,29.1,0,0,1,6.41-2.73,30.21,30.21,0,0,1,9-1.23q8.52,0,13.36,3.83c3.22,2.54,4.83,6.4,4.83,11.55v27.1a8.57,8.57,0,0,1-1.71.48,13.07,13.07,0,0,1-2.4.21,6,6,0,0,1-3.69-.94,3.81,3.81,0,0,1-1.2-3.17V49Q285,44.64,282.53,42.57Z" fill="#7fc9ef"/><path d="M311.63,59.81a12.12,12.12,0,0,0,4.84,7.5,16,16,0,0,0,9.19,2.45,19.43,19.43,0,0,0,6.83-1.16,21.92,21.92,0,0,0,5-2.48,4.39,4.39,0,0,1,2.48,4,4.11,4.11,0,0,1-1.15,2.8,9.75,9.75,0,0,1-3.15,2.22,20.42,20.42,0,0,1-4.71,1.46,29.66,29.66,0,0,1-5.81.53,29.12,29.12,0,0,1-9.37-1.42,19.26,19.26,0,0,1-7.23-4.26,19,19,0,0,1-4.66-7,26.21,26.21,0,0,1-1.64-9.68,25.42,25.42,0,0,1,1.59-9.36,19.46,19.46,0,0,1,4.35-6.75,18.58,18.58,0,0,1,6.48-4.12,22.21,22.21,0,0,1,8-1.42,21.07,21.07,0,0,1,7.77,1.37,18,18,0,0,1,6,3.82,16.78,16.78,0,0,1,3.91,5.81,19.3,19.3,0,0,1,1.38,7.37,4.31,4.31,0,0,1-1.07,3.24,5.84,5.84,0,0,1-3.11,1.38Zm11-19.52a10.94,10.94,0,0,0-8.12,3.28q-3.24,3.28-3.42,9.41l21.84-3.11A11.27,11.27,0,0,0,330,43.08C328.29,41.22,325.84,40.29,322.64,40.29Z" fill="#7fc9ef"/></g></g></svg>