<svg width="687" height="304" viewBox="0 0 687 304" fill="none" xmlns="http://www.w3.org/2000/svg">
<g clip-path="url(#clip0_242_22)">
<path fill-rule="evenodd" clip-rule="evenodd" d="M295.52 39.8541H278.35C277.79 41.7264 277.19 43.678 276.55 45.6989C275.92 47.7298 275.39 49.3941 274.98 50.7216C274.85 50.7711 274.71 50.8206 274.58 50.8701C274.44 50.9197 274.3 50.9593 274.17 51.0088C274.03 51.0485 273.89 51.098 273.75 51.1376C273.61 51.1773 273.47 51.2169 273.33 51.2466C273.15 51.2862 272.97 51.3258 272.79 51.3556C272.61 51.3853 272.43 51.415 272.25 51.4348C272.07 51.4447 271.88 51.4645 271.7 51.4744C271.52 51.4744 271.33 51.4844 271.15 51.4744C270.8 51.4943 270.44 51.4943 270.09 51.4546C269.73 51.4249 269.38 51.3655 269.04 51.2763C268.69 51.1872 268.36 51.0782 268.03 50.9395C267.7 50.8008 267.39 50.6324 267.09 50.4541C266.85 50.2857 266.64 50.0974 266.45 49.8795C266.26 49.6715 266.11 49.4337 265.98 49.1761C265.85 48.9186 265.76 48.6511 265.7 48.3737C265.64 48.0963 265.62 47.809 265.63 47.5316C265.63 47.3731 265.64 47.2245 265.65 47.0759C265.66 46.9273 265.68 46.7787 265.7 46.6301C265.72 46.4815 265.75 46.333 265.78 46.1844C265.82 46.0358 265.86 45.8872 265.9 45.7485C266.08 45.164 266.3 44.4903 266.55 43.7374C266.96 42.3208 267.51 40.607 268.2 38.6058C268.89 36.6047 269.63 34.4352 270.42 32.0774C271.21 29.7296 272.07 27.2926 272.99 24.7961C273.91 22.2898 274.79 19.8528 275.64 17.495C276.48 15.1372 277.29 12.938 278.08 10.8972C278.87 8.84659 279.55 7.08323 280.12 5.61706C280.35 5.49818 280.59 5.38921 280.83 5.29015C281.07 5.19108 281.32 5.09202 281.56 5.00286C281.81 4.9137 282.06 4.83444 282.31 4.7651C282.56 4.68585 282.81 4.6165 283.07 4.55706C283.39 4.4679 283.71 4.38865 284.04 4.3193C284.36 4.25987 284.69 4.20043 285.02 4.1608C285.35 4.11127 285.68 4.08155 286.01 4.05183C286.35 4.03201 286.68 4.02211 287.01 4.02211C287.43 4.0122 287.84 4.03201 288.26 4.06173C288.67 4.09145 289.09 4.14099 289.5 4.21033C289.91 4.26977 290.32 4.35893 290.72 4.458C291.12 4.55706 291.52 4.67594 291.91 4.81463C292.23 4.90379 292.54 5.03258 292.83 5.19108C293.12 5.34958 293.39 5.53781 293.64 5.75575C293.88 5.9737 294.1 6.22136 294.29 6.49874C294.48 6.76622 294.63 7.05351 294.75 7.36061C295.77 10.1444 296.9 13.3442 298.13 16.97C299.35 20.5858 300.59 24.3206 301.84 28.1644C303.09 32.0081 304.31 35.7825 305.48 39.4677C306.66 43.1629 307.71 46.4816 308.62 49.4139C308.48 49.5724 308.32 49.7111 308.16 49.8498C307.99 49.9885 307.82 50.1173 307.65 50.2361C307.47 50.3451 307.29 50.4541 307.1 50.5531C306.91 50.6522 306.72 50.7414 306.52 50.8206C306.27 50.9197 306.01 51.0088 305.75 51.0881C305.49 51.1574 305.22 51.2169 304.96 51.2664C304.69 51.3159 304.42 51.3457 304.15 51.3655C303.88 51.3952 303.61 51.3952 303.34 51.3952C303 51.4249 302.67 51.4249 302.34 51.3952C302.01 51.3754 301.68 51.3259 301.36 51.2367C301.03 51.1574 300.72 51.0485 300.41 50.9197C300.11 50.781 299.82 50.6225 299.54 50.4442C299.33 50.2361 299.13 50.0182 298.95 49.7903C298.77 49.5625 298.61 49.3247 298.46 49.0672C298.32 48.8096 298.19 48.552 298.08 48.2845C297.98 48.0072 297.89 47.7298 297.82 47.4524L295.52 39.8541ZM286.94 12.6804C286.48 13.9386 285.98 15.3552 285.44 16.9303C284.91 18.4956 284.34 20.1301 283.76 21.8242C283.17 23.5182 282.57 25.2419 281.96 26.9855C281.34 28.729 280.76 30.4429 280.19 32.1072H293.53L287.32 12.6804H286.94Z" fill="#23B572"/>
<path fill-rule="evenodd" clip-rule="evenodd" d="M332.46 51.7716C332.11 51.7815 331.77 51.7716 331.42 51.7518C331.08 51.7419 330.74 51.7122 330.39 51.6824C330.05 51.6428 329.71 51.6032 329.37 51.5438C329.03 51.4942 328.69 51.4249 328.36 51.3555C328.07 51.2961 327.78 51.2267 327.49 51.1475C327.2 51.0781 326.91 50.9989 326.63 50.9097C326.35 50.8305 326.06 50.7314 325.78 50.6423C325.5 50.5432 325.22 50.4441 324.95 50.3352V64.3034C324.49 64.4024 323.87 64.5312 323.11 64.6798C322.89 64.7195 322.68 64.7591 322.46 64.7888C322.25 64.8185 322.03 64.8383 321.81 64.8581C321.6 64.878 321.38 64.8879 321.16 64.8978C320.94 64.9077 320.72 64.9077 320.51 64.9077C320.16 64.9374 319.81 64.9275 319.46 64.8978C319.12 64.8681 318.77 64.8185 318.43 64.7294C318.1 64.6501 317.77 64.5411 317.45 64.4024C317.12 64.2638 316.82 64.1052 316.52 63.917C316.28 63.6991 316.07 63.4514 315.89 63.1839C315.71 62.9165 315.57 62.6292 315.45 62.3221C315.34 62.0249 315.26 61.7079 315.23 61.3909C315.19 61.0738 315.19 60.7469 315.22 60.4299V21.943C315.21 21.6854 315.22 21.4279 315.24 21.1703C315.27 20.9127 315.31 20.6552 315.37 20.4075C315.43 20.1598 315.51 19.9122 315.61 19.6744C315.71 19.4367 315.82 19.1989 315.95 18.981C316.1 18.763 316.26 18.555 316.44 18.3568C316.61 18.1488 316.8 17.9606 317 17.7823C317.19 17.6039 317.4 17.4355 317.62 17.2869C317.83 17.1284 318.06 16.9798 318.29 16.8511C318.72 16.6133 319.16 16.3854 319.61 16.1675C320.06 15.9496 320.51 15.7514 320.97 15.5632C321.44 15.375 321.9 15.2066 322.37 15.0481C322.84 14.8896 323.32 14.741 323.8 14.6122C324.4 14.4438 325.01 14.3051 325.63 14.1862C326.24 14.0574 326.86 13.9583 327.48 13.8791C328.1 13.7998 328.73 13.7404 329.35 13.7008C329.98 13.6711 330.6 13.6512 331.23 13.6611C331.89 13.6611 332.54 13.681 333.2 13.7206C333.86 13.7602 334.51 13.8296 335.16 13.9187C335.81 14.0178 336.46 14.1268 337.1 14.2754C337.74 14.414 338.38 14.5725 339.01 14.7608C339.58 14.9292 340.14 15.1372 340.68 15.3651C341.23 15.5929 341.76 15.8505 342.28 16.1378C342.8 16.4251 343.3 16.7421 343.78 17.0789C344.27 17.4256 344.73 17.7922 345.18 18.1785C345.62 18.5847 346.05 19.0107 346.44 19.4664C346.84 19.9221 347.21 20.3976 347.55 20.8929C347.89 21.3882 348.21 21.9034 348.49 22.4284C348.77 22.9634 349.02 23.5082 349.24 24.063C349.5 24.7466 349.72 25.4301 349.91 26.1335C350.1 26.8269 350.26 27.5303 350.38 28.2436C350.5 28.9568 350.59 29.68 350.64 30.4032C350.69 31.1165 350.71 31.8496 350.7 32.5727C350.71 33.2761 350.69 33.9894 350.64 34.6927C350.59 35.406 350.51 36.1094 350.39 36.8028C350.28 37.5062 350.13 38.1996 349.95 38.8832C349.77 39.5767 349.56 40.2503 349.31 40.9239C349.11 41.4787 348.87 42.0236 348.61 42.5585C348.34 43.0935 348.05 43.6086 347.73 44.1138C347.42 44.6191 347.07 45.1045 346.7 45.5701C346.33 46.0357 345.94 46.4914 345.52 46.9174C345.12 47.3236 344.69 47.7 344.25 48.0567C343.8 48.4232 343.34 48.7501 342.85 49.0572C342.37 49.3643 341.87 49.6417 341.36 49.8894C340.84 50.1469 340.31 50.3649 339.77 50.563C339.19 50.771 338.59 50.9494 337.99 51.1079C337.39 51.2565 336.78 51.3853 336.17 51.4843C335.56 51.5933 334.94 51.6626 334.32 51.7122C333.7 51.7617 333.08 51.7815 332.46 51.7716ZM332.99 44.0049C333.65 43.8959 334.29 43.7176 334.91 43.4798C335.53 43.2421 336.12 42.935 336.67 42.5684C337.23 42.2019 337.74 41.7759 338.2 41.3004C339.93 39.4281 340.8 36.5155 340.81 32.5727C340.81 28.4714 339.91 25.5589 338.12 23.8352C337.67 23.4092 337.17 23.0228 336.63 22.686C336.1 22.3591 335.53 22.0718 334.94 21.8539C334.35 21.6359 333.73 21.4675 333.11 21.3684C332.49 21.2694 331.86 21.2297 331.22 21.2595C330.92 21.2496 330.61 21.2595 330.3 21.2793C329.99 21.2991 329.69 21.3288 329.38 21.3684C329.08 21.418 328.78 21.4774 328.48 21.5468C328.18 21.6161 327.88 21.6954 327.59 21.7845C327.35 21.8638 327.12 21.943 326.89 22.0322C326.66 22.1213 326.43 22.2105 326.2 22.2996C325.97 22.3987 325.75 22.4978 325.53 22.5968C325.3 22.7058 325.08 22.8148 324.86 22.9238V42.4396C325.08 42.5684 325.29 42.6972 325.51 42.8062C325.73 42.9251 325.96 43.034 326.19 43.1331C326.41 43.2322 326.65 43.3312 326.88 43.4204C327.11 43.4996 327.35 43.5789 327.59 43.6482C327.87 43.7275 328.15 43.7968 328.43 43.8563C328.71 43.9157 328.99 43.9652 329.28 44.0049C329.56 44.0445 329.85 44.0742 330.14 44.0841C330.42 44.1039 330.71 44.1138 331 44.1039C331.66 44.1436 332.33 44.1039 332.99 44.0049Z" fill="#23B572"/>
<path fill-rule="evenodd" clip-rule="evenodd" d="M394.38 32.7214C394.39 33.395 394.37 34.0687 394.32 34.7423C394.26 35.416 394.18 36.0797 394.07 36.7434C393.96 37.4072 393.81 38.0709 393.64 38.7247C393.47 39.3786 393.27 40.0225 393.04 40.6565C392.83 41.2113 392.59 41.7661 392.33 42.301C392.07 42.836 391.77 43.361 391.46 43.8662C391.14 44.3715 390.79 44.8668 390.42 45.3324C390.05 45.8079 389.66 46.2537 389.24 46.6896C388.83 47.1057 388.39 47.5019 387.94 47.8784C387.48 48.2548 387 48.6016 386.5 48.9285C386.01 49.2455 385.5 49.5427 384.97 49.8102C384.44 50.0776 383.9 50.3154 383.34 50.5234C382.73 50.7513 382.1 50.9494 381.46 51.1178C380.83 51.2961 380.18 51.4348 379.54 51.5438C378.89 51.6528 378.23 51.7419 377.58 51.7915C376.92 51.841 376.26 51.8608 375.6 51.8509C374.94 51.8608 374.29 51.841 373.63 51.7915C372.97 51.7419 372.32 51.6528 371.67 51.5438C371.02 51.4348 370.38 51.2961 369.74 51.1178C369.11 50.9494 368.48 50.7513 367.86 50.5234C367.31 50.3154 366.77 50.0776 366.24 49.8102C365.71 49.5526 365.2 49.2554 364.71 48.9384C364.21 48.6214 363.73 48.2747 363.27 47.9081C362.82 47.5317 362.38 47.1453 361.96 46.7292C361.54 46.3033 361.15 45.8476 360.78 45.3819C360.41 44.9163 360.06 44.4309 359.74 43.9257C359.43 43.4204 359.13 42.9053 358.87 42.3704C358.61 41.8354 358.37 41.2905 358.17 40.7259C357.94 40.0919 357.73 39.438 357.56 38.7842C357.39 38.1205 357.24 37.4567 357.13 36.7831C357.02 36.1094 356.94 35.4358 356.89 34.7621C356.84 34.0786 356.82 33.395 356.83 32.7214C356.82 32.0477 356.84 31.3741 356.89 30.7005C356.94 30.0268 357.02 29.3532 357.14 28.6894C357.25 28.0257 357.39 27.3719 357.56 26.718C357.74 26.0642 357.94 25.4203 358.17 24.7862C358.37 24.2216 358.61 23.6767 358.88 23.1418C359.14 22.6068 359.44 22.0818 359.76 21.5864C360.08 21.0812 360.43 20.5958 360.8 20.1203C361.18 19.6547 361.58 19.2089 362 18.7928C362.42 18.3767 362.87 17.9805 363.33 17.6139C363.79 17.2474 364.27 16.9006 364.77 16.5836C365.27 16.2666 365.79 15.9694 366.31 15.7019C366.84 15.4345 367.39 15.1967 367.94 14.9887C368.55 14.7608 369.17 14.5627 369.8 14.3943C370.43 14.2259 371.07 14.0872 371.71 13.9683C372.35 13.8593 373 13.7801 373.65 13.7305C374.3 13.681 374.95 13.6513 375.6 13.6612C376.25 13.6513 376.91 13.681 377.56 13.7305C378.21 13.7801 378.85 13.8593 379.5 13.9683C380.14 14.0872 380.78 14.2259 381.41 14.3943C382.03 14.5627 382.66 14.7608 383.27 14.9887C383.82 15.2066 384.37 15.4444 384.9 15.7119C385.43 15.9793 385.94 16.2765 386.44 16.5935C386.94 16.9205 387.42 17.2672 387.88 17.6337C388.35 18.0102 388.79 18.4064 389.21 18.8225C389.63 19.2584 390.03 19.7042 390.4 20.1797C390.77 20.6453 391.12 21.1406 391.44 21.6459C391.77 22.1511 392.06 22.6762 392.33 23.2111C392.59 23.7461 392.83 24.3008 393.04 24.8655C393.27 25.4896 393.47 26.1236 393.64 26.7775C393.81 27.4214 393.95 28.0752 394.07 28.729C394.18 29.3928 394.26 30.0565 394.31 30.7203C394.37 31.384 394.39 32.0477 394.38 32.7214ZM373.75 21.3982C373.14 21.5171 372.54 21.7152 371.98 21.9728C371.41 22.2304 370.88 22.5573 370.39 22.9436C369.91 23.33 369.47 23.7659 369.09 24.2513C367.5 26.2524 366.71 29.0758 366.71 32.7214C366.71 36.4165 367.49 39.2498 369.05 41.2212C369.44 41.7066 369.88 42.1524 370.37 42.5289C370.86 42.9152 371.39 43.2322 371.96 43.4898C372.53 43.7474 373.13 43.9356 373.74 44.0545C374.35 44.1733 374.98 44.213 375.6 44.1833C376.23 44.213 376.85 44.1634 377.47 44.0446C378.08 43.9356 378.68 43.7375 379.25 43.4799C379.82 43.2223 380.35 42.8954 380.84 42.509C381.33 42.1227 381.77 41.6769 382.15 41.1816C383.71 39.1904 384.49 36.367 384.49 32.7214C384.49 29.0758 383.7 26.2524 382.12 24.2513C381.74 23.7659 381.3 23.33 380.81 22.9436C380.32 22.5573 379.79 22.2304 379.23 21.9728C378.66 21.7152 378.07 21.5171 377.46 21.3982C376.85 21.2793 376.22 21.2298 375.6 21.2595C374.98 21.2298 374.36 21.2793 373.75 21.3982Z" fill="#23B572"/>
<path d="M413.5 43.044C413.81 43.2322 414.13 43.4105 414.47 43.5492C414.8 43.6879 415.15 43.8068 415.5 43.8959C415.86 43.9851 416.22 44.0544 416.58 44.0841C416.94 44.1238 417.31 44.1238 417.67 44.104C417.9 44.104 418.12 44.104 418.34 44.0841C418.56 44.0742 418.78 44.0544 419 44.0247C419.23 44.0049 419.45 43.9752 419.66 43.9355C419.88 43.8959 420.1 43.8563 420.32 43.8068C420.52 43.7572 420.73 43.7077 420.93 43.6582C421.14 43.5987 421.34 43.5393 421.54 43.4798C421.74 43.4105 421.94 43.3511 422.14 43.2718C422.34 43.2025 422.54 43.1232 422.73 43.044C422.84 43.1529 422.94 43.2619 423.04 43.3808C423.13 43.4997 423.23 43.6185 423.31 43.7473C423.4 43.8662 423.48 43.995 423.56 44.1238C423.63 44.2625 423.7 44.3912 423.77 44.5299C423.84 44.6884 423.9 44.8469 423.96 45.0154C424.01 45.1739 424.06 45.3423 424.09 45.5107C424.13 45.6791 424.15 45.8475 424.17 46.0258C424.19 46.1942 424.19 46.3726 424.19 46.541C424.19 46.9174 424.14 47.284 424.05 47.6406C423.95 48.0071 423.82 48.3539 423.64 48.6808C423.46 49.0077 423.24 49.3049 422.98 49.5823C422.72 49.8498 422.43 50.0974 422.12 50.2955C420.74 51.2763 418.52 51.7716 415.45 51.7716C411.41 51.7716 408.23 50.88 405.91 49.077C403.59 47.284 402.42 44.312 402.42 40.1612V5.30994C402.83 5.21087 403.43 5.08209 404.22 4.93349C404.44 4.89386 404.65 4.86414 404.86 4.83442C405.08 4.8047 405.29 4.77499 405.51 4.75517C405.72 4.73536 405.93 4.72545 406.15 4.71555C406.37 4.70564 406.58 4.70564 406.8 4.70564C407.14 4.67592 407.49 4.67592 407.83 4.70564C408.18 4.73536 408.52 4.7948 408.85 4.88396C409.19 4.96321 409.51 5.07218 409.83 5.21087C410.15 5.34956 410.45 5.50807 410.74 5.69629C410.98 5.92414 411.18 6.17181 411.36 6.43928C411.53 6.70676 411.68 6.99405 411.78 7.30115C411.89 7.59835 411.97 7.91536 412.01 8.23237C412.04 8.54938 412.04 8.86639 412.01 9.1933V15.4939H423.27C423.34 15.6127 423.41 15.7415 423.48 15.8703C423.54 15.9991 423.61 16.1279 423.66 16.2666C423.72 16.3954 423.78 16.5341 423.82 16.6727C423.87 16.8114 423.92 16.9501 423.96 17.0888C424.01 17.2572 424.06 17.4355 424.09 17.604C424.13 17.7823 424.17 17.9606 424.19 18.1389C424.22 18.3172 424.24 18.4955 424.25 18.6739C424.26 18.8522 424.27 19.0305 424.26 19.2088C424.29 19.4664 424.28 19.724 424.26 19.9815C424.23 20.2391 424.17 20.4967 424.1 20.7443C424.02 20.992 423.91 21.2298 423.79 21.4576C423.66 21.6855 423.51 21.8935 423.34 22.0916C423.18 22.2501 423.01 22.3888 422.82 22.5077C422.63 22.6266 422.42 22.7256 422.21 22.8049C422 22.8742 421.79 22.9337 421.56 22.9733C421.34 23.003 421.12 23.0129 420.89 23.003H412V39.5569C411.97 39.8838 411.98 40.2107 412.03 40.5376C412.08 40.8645 412.18 41.1815 412.31 41.4886C412.44 41.7858 412.6 42.0731 412.8 42.3406C413 42.5982 413.24 42.8359 413.5 43.044Z" fill="#23B572"/>
<path fill-rule="evenodd" clip-rule="evenodd" d="M439.67 37.0505C439.8 37.6152 439.98 38.1798 440.22 38.7148C440.46 39.2497 440.76 39.7649 441.1 40.2503C441.44 40.7258 441.83 41.1716 442.26 41.5778C442.68 41.9839 443.15 42.3505 443.65 42.6675C444.2 42.9746 444.76 43.2421 445.34 43.4699C445.93 43.6978 446.52 43.886 447.13 44.0346C447.74 44.1733 448.36 44.2823 448.98 44.3516C449.6 44.411 450.23 44.4309 450.85 44.411C451.36 44.4209 451.86 44.4011 452.36 44.3615C452.87 44.3219 453.37 44.2723 453.87 44.1931C454.36 44.1039 454.86 44.0049 455.35 43.886C455.84 43.7671 456.32 43.6284 456.8 43.46C457.18 43.3411 457.56 43.2024 457.94 43.0538C458.32 42.9052 458.69 42.7467 459.06 42.5783C459.42 42.4099 459.79 42.2316 460.14 42.0434C460.5 41.8551 460.86 41.657 461.2 41.449C461.38 41.548 461.55 41.6669 461.72 41.7858C461.88 41.9047 462.04 42.0434 462.19 42.1821C462.33 42.3208 462.47 42.4694 462.6 42.6279C462.73 42.7864 462.86 42.9449 462.96 43.1232C463.08 43.2916 463.18 43.4699 463.26 43.6482C463.35 43.8266 463.42 44.0148 463.48 44.2129C463.54 44.4011 463.58 44.5993 463.61 44.7974C463.64 44.9955 463.65 45.1937 463.65 45.4017C463.66 45.6494 463.63 45.8871 463.59 46.1348C463.55 46.3725 463.48 46.6103 463.39 46.848C463.3 47.0759 463.19 47.2938 463.06 47.5019C462.94 47.7099 462.79 47.908 462.62 48.0963C462.42 48.3142 462.21 48.5123 461.99 48.7105C461.78 48.8987 461.55 49.077 461.31 49.2454C461.07 49.4138 460.82 49.5723 460.57 49.7209C460.31 49.8596 460.05 49.9884 459.78 50.1073C459.45 50.2559 459.1 50.3946 458.75 50.5234C458.41 50.6522 458.05 50.771 457.7 50.88C457.34 50.989 456.98 51.088 456.62 51.1772C456.26 51.2565 455.9 51.3357 455.53 51.3952C455.1 51.4744 454.66 51.5437 454.22 51.6032C453.78 51.6527 453.34 51.7023 452.9 51.7419C452.46 51.7815 452.01 51.8112 451.57 51.831C451.13 51.8409 450.69 51.8509 450.24 51.8509C449.55 51.8608 448.85 51.8409 448.15 51.7914C447.46 51.7419 446.76 51.6725 446.08 51.5735C445.39 51.4645 444.7 51.3357 444.02 51.1871C443.34 51.0286 442.67 50.8404 442 50.6323C441.41 50.454 440.84 50.2361 440.27 49.9884C439.7 49.7309 439.15 49.4535 438.62 49.1464C438.08 48.8393 437.57 48.4925 437.07 48.1359C436.57 47.7694 436.1 47.3731 435.64 46.957C435.19 46.531 434.77 46.0753 434.36 45.5998C433.96 45.1342 433.59 44.6389 433.24 44.1238C432.89 43.6086 432.57 43.0737 432.28 42.5288C431.99 41.9839 431.73 41.4193 431.51 40.8447C431.24 40.171 431.02 39.4776 430.82 38.7841C430.63 38.0808 430.47 37.3774 430.34 36.6641C430.22 35.9509 430.13 35.2277 430.07 34.5045C430.02 33.7912 430 33.068 430.01 32.335C430 31.6415 430.02 30.9481 430.07 30.2447C430.12 29.5512 430.21 28.8578 430.33 28.1742C430.46 27.4808 430.61 26.8071 430.8 26.1335C430.99 25.4598 431.21 24.7961 431.47 24.1423C431.69 23.5974 431.94 23.0624 432.22 22.5374C432.49 22.0123 432.8 21.5071 433.13 21.0118C433.46 20.5264 433.82 20.0509 434.2 19.5952C434.58 19.1494 434.99 18.7135 435.41 18.2974C435.83 17.911 436.26 17.5445 436.71 17.1978C437.16 16.851 437.63 16.534 438.12 16.2368C438.6 15.9495 439.1 15.6821 439.62 15.4443C440.13 15.1966 440.66 14.9886 441.2 14.8004C441.76 14.6122 442.33 14.4438 442.9 14.2952C443.47 14.1565 444.05 14.0376 444.64 13.9385C445.22 13.8494 445.81 13.7701 446.4 13.7305C446.99 13.6809 447.58 13.6611 448.17 13.6611C448.76 13.6611 449.35 13.6809 449.93 13.7206C450.52 13.7701 451.1 13.8395 451.68 13.9385C452.26 14.0376 452.83 14.1664 453.4 14.315C453.96 14.4636 454.52 14.6419 455.07 14.84C455.57 15.0183 456.06 15.2264 456.53 15.4542C457.01 15.6821 457.47 15.9297 457.92 16.2071C458.37 16.4845 458.81 16.7817 459.23 17.0987C459.65 17.4157 460.05 17.7525 460.44 18.1092C460.81 18.4658 461.17 18.8323 461.5 19.2187C461.84 19.615 462.15 20.0112 462.44 20.4372C462.74 20.8533 463.01 21.2892 463.26 21.7449C463.5 22.1907 463.73 22.6464 463.93 23.1219C464.14 23.6172 464.33 24.1323 464.49 24.6475C464.65 25.1626 464.78 25.6976 464.89 26.2226C464.99 26.7576 465.07 27.2925 465.12 27.8374C465.17 28.3723 465.2 28.9172 465.19 29.4621C465.21 29.7494 465.21 30.0366 465.17 30.3239C465.13 30.6112 465.06 30.8886 464.97 31.166C464.87 31.4434 464.75 31.7009 464.6 31.9486C464.45 32.1963 464.27 32.434 464.07 32.6421C463.86 32.8303 463.63 33.0086 463.39 33.1572C463.15 33.3157 462.9 33.4544 462.63 33.5634C462.37 33.6823 462.1 33.7813 461.82 33.8507C461.54 33.9299 461.26 33.9795 460.97 34.0092L439.67 37.0505ZM446.45 21.0019C445.88 21.1009 445.32 21.2595 444.78 21.4774C444.24 21.6854 443.72 21.9529 443.24 22.26C442.75 22.577 442.3 22.9436 441.89 23.3398C441.45 23.8153 441.05 24.3305 440.7 24.8753C440.35 25.4202 440.05 25.9948 439.81 26.5892C439.57 27.1935 439.38 27.8077 439.25 28.4417C439.13 29.0757 439.06 29.7196 439.05 30.3636L456.07 27.8572C456.02 27.4114 455.94 26.9557 455.82 26.5198C455.7 26.074 455.55 25.648 455.36 25.232C455.17 24.8159 454.95 24.4196 454.69 24.0333C454.44 23.6568 454.16 23.3002 453.85 22.9634C453.48 22.5968 453.07 22.2798 452.63 22.0024C452.19 21.7152 451.73 21.4873 451.24 21.309C450.75 21.1307 450.25 21.0019 449.73 20.9325C449.22 20.8533 448.69 20.8434 448.17 20.8731C447.6 20.8632 447.02 20.9028 446.45 21.0019Z" fill="#23B572"/>
<path d="M480.74 51.0187C480.53 51.0584 480.31 51.0881 480.1 51.1178C479.88 51.1475 479.66 51.1772 479.45 51.1971C479.23 51.207 479.01 51.2268 478.79 51.2367C478.58 51.2466 478.36 51.2466 478.14 51.2466C477.79 51.2664 477.44 51.2664 477.1 51.2367C476.75 51.207 476.4 51.1475 476.07 51.0683C475.73 50.9791 475.4 50.8701 475.08 50.7314C474.76 50.6027 474.45 50.4342 474.15 50.2559C473.29 49.5922 472.85 48.4331 472.85 46.7589V1.36715C473 1.31762 473.15 1.26808 473.3 1.22846C473.44 1.18883 473.59 1.14921 473.74 1.10958C473.89 1.07986 474.04 1.05014 474.2 1.02042C474.35 0.990701 474.5 0.970888 474.65 0.951075C474.87 0.911449 475.09 0.881729 475.31 0.861916C475.53 0.832197 475.75 0.812383 475.97 0.802477C476.19 0.782664 476.41 0.772757 476.63 0.762851C476.85 0.762851 477.08 0.752944 477.3 0.752944C477.64 0.733131 477.99 0.733131 478.34 0.762851C478.69 0.79257 479.03 0.85201 479.37 0.931262C479.71 1.02042 480.04 1.12939 480.36 1.26808C480.68 1.39687 480.99 1.56528 481.28 1.7436C481.52 1.97145 481.73 2.21911 481.91 2.48659C482.09 2.75407 482.24 3.04136 482.35 3.33855C482.46 3.64565 482.54 3.95276 482.58 4.27967C482.62 4.59668 482.62 4.9236 482.58 5.24061V28.7785L497.45 14.1169C497.86 14.0971 498.27 14.107 498.68 14.1565C499.09 14.206 499.5 14.2754 499.89 14.3843C500.29 14.4933 500.68 14.6419 501.05 14.8103C501.42 14.9787 501.78 15.1769 502.13 15.4047C502.4 15.583 502.64 15.7911 502.86 16.0387C503.08 16.2765 503.27 16.5341 503.42 16.8214C503.58 17.1086 503.69 17.4058 503.77 17.7228C503.85 18.03 503.89 18.3569 503.89 18.6739C503.89 18.9513 503.87 19.2286 503.83 19.4961C503.78 19.7735 503.71 20.041 503.61 20.2985C503.52 20.5561 503.4 20.8038 503.26 21.0415C503.12 21.2793 502.96 21.5071 502.78 21.7152C502.51 22.0025 502.23 22.2997 501.95 22.5771C501.67 22.8643 501.39 23.1417 501.1 23.4191C500.81 23.6866 500.51 23.9541 500.21 24.2116C499.91 24.4791 499.6 24.7367 499.29 24.9843L491.01 32.1171L505.65 45.6989C505.63 46.0754 505.57 46.4518 505.49 46.8184C505.41 47.1849 505.3 47.5415 505.17 47.8883C505.03 48.2449 504.87 48.5817 504.68 48.9086C504.49 49.2356 504.28 49.5427 504.04 49.8399C503.81 50.0875 503.54 50.3154 503.25 50.5135C502.97 50.7116 502.66 50.8701 502.33 50.9989C502.01 51.1277 501.67 51.2169 501.33 51.2763C500.98 51.3258 500.63 51.3457 500.29 51.3159C500.01 51.3258 499.74 51.3159 499.47 51.2763C499.2 51.2466 498.94 51.1971 498.68 51.1178C498.41 51.0485 498.16 50.9593 497.91 50.8602C497.66 50.7513 497.42 50.6225 497.19 50.4838C496.88 50.2757 496.59 50.0578 496.3 49.8299C496.01 49.5922 495.73 49.3544 495.46 49.1068C495.19 48.8591 494.92 48.6114 494.67 48.344C494.41 48.0765 494.17 47.809 493.93 47.5217L482.58 35.0692V50.6324C482.12 50.7414 481.51 50.8602 480.74 51.0187Z" fill="#23B572"/>
<path fill-rule="evenodd" clip-rule="evenodd" d="M526.73 13.6611C531.73 13.6611 535.73 14.731 538.72 16.851C541.71 18.9809 543.2 22.2699 543.2 26.718V44.2525C543.22 44.5101 543.21 44.7677 543.17 45.0252C543.14 45.2828 543.09 45.5404 543.01 45.7781C542.93 46.0258 542.83 46.2636 542.71 46.4914C542.59 46.7193 542.44 46.9372 542.28 47.1452C542.12 47.3236 541.95 47.5118 541.77 47.6802C541.59 47.8585 541.4 48.017 541.21 48.1854C541.02 48.3439 540.82 48.4925 540.61 48.6312C540.41 48.7798 540.2 48.9086 539.98 49.0374C539.56 49.2751 539.13 49.503 538.69 49.711C538.25 49.9191 537.8 50.1073 537.34 50.2757C536.89 50.454 536.43 50.6026 535.96 50.7413C535.49 50.88 535.02 50.989 534.54 51.088C533.93 51.2267 533.31 51.3456 532.68 51.4348C532.06 51.5338 531.44 51.623 530.81 51.6824C530.18 51.7419 529.55 51.7914 528.92 51.8211C528.29 51.8509 527.66 51.8608 527.03 51.8509C521.92 51.8509 517.9 50.88 514.96 48.9284C512.02 46.9768 510.56 44.0544 510.56 40.1611C510.56 36.7731 511.64 34.1776 513.81 32.3746C515.98 30.5815 519.14 29.4819 523.28 29.0757L533.78 28.0157V26.6486C533.8 26.2325 533.78 25.8165 533.7 25.4103C533.62 25.0041 533.48 24.6079 533.3 24.2413C533.12 23.8649 532.88 23.5181 532.61 23.211C532.33 22.894 532.02 22.6266 531.67 22.3987C531.22 22.1411 530.75 21.9232 530.27 21.735C529.79 21.5566 529.3 21.408 528.8 21.2892C528.3 21.1703 527.79 21.091 527.28 21.0514C526.76 21.0019 526.25 21.0019 525.73 21.0316C525.24 21.0316 524.75 21.0415 524.26 21.0712C523.77 21.1009 523.28 21.1505 522.8 21.2099C522.31 21.2694 521.83 21.3387 521.34 21.4279C520.86 21.5269 520.38 21.626 519.91 21.7449C519.47 21.8538 519.04 21.9727 518.61 22.1015C518.18 22.2303 517.76 22.369 517.33 22.5176C516.91 22.6662 516.49 22.8247 516.08 22.9931C515.66 23.1615 515.25 23.3398 514.85 23.528C514.7 23.4191 514.56 23.3101 514.43 23.1813C514.3 23.0624 514.17 22.9337 514.05 22.795C513.93 22.6563 513.82 22.5176 513.72 22.369C513.61 22.2105 513.52 22.0619 513.43 21.9034C513.34 21.735 513.25 21.5566 513.18 21.3783C513.11 21.1901 513.05 21.0118 513 20.8137C512.95 20.6254 512.91 20.4372 512.89 20.249C512.87 20.0509 512.86 19.8527 512.86 19.6645C512.85 19.4466 512.86 19.2286 512.88 19.0107C512.91 18.7927 512.95 18.5748 513.01 18.3667C513.08 18.1587 513.16 17.9507 513.25 17.7525C513.35 17.5643 513.46 17.3761 513.59 17.1978C513.74 17.0095 513.91 16.8312 514.09 16.6628C514.27 16.5043 514.46 16.3458 514.65 16.2071C514.85 16.0585 515.06 15.9297 515.27 15.8109C515.48 15.692 515.7 15.583 515.92 15.4839C516.33 15.3254 516.74 15.1768 517.16 15.0381C517.57 14.8995 517.99 14.7707 518.41 14.6617C518.84 14.5428 519.26 14.4437 519.69 14.3546C520.12 14.2654 520.55 14.1862 520.98 14.1168C521.46 14.0475 521.93 13.9781 522.41 13.9187C522.89 13.8593 523.36 13.8196 523.84 13.78C524.32 13.7404 524.8 13.7107 525.28 13.6909C525.76 13.671 526.24 13.6611 526.73 13.6611ZM527.03 44.5596C527.37 44.5695 527.71 44.5596 528.05 44.5398C528.4 44.5299 528.74 44.5002 529.07 44.4705C529.41 44.4308 529.75 44.3912 530.09 44.3318C530.43 44.2823 530.76 44.2129 531.09 44.1436C531.33 44.1039 531.57 44.0544 531.8 43.9851C532.03 43.9256 532.26 43.8464 532.48 43.7572C532.71 43.678 532.93 43.5789 533.14 43.4699C533.36 43.3609 533.57 43.2421 533.78 43.1232V34.6927L526.34 35.3763C525.93 35.3961 525.53 35.4357 525.12 35.5051C524.72 35.5744 524.32 35.6636 523.93 35.7725C523.53 35.8815 523.15 36.0202 522.77 36.1787C522.39 36.3273 522.02 36.5056 521.67 36.7037C521.4 36.8821 521.16 37.0802 520.95 37.318C520.74 37.5557 520.56 37.8232 520.42 38.1006C520.28 38.3879 520.18 38.6851 520.12 38.9922C520.05 39.2993 520.03 39.6163 520.06 39.9333C520.04 40.2602 520.07 40.5871 520.13 40.914C520.2 41.231 520.31 41.548 520.45 41.8452C520.59 42.1424 520.77 42.4198 520.98 42.6774C521.2 42.9251 521.44 43.1529 521.71 43.351C522.8 44.1535 524.58 44.5596 527.03 44.5596Z" fill="#23B572"/>
<path d="M154.06 151.748C159.02 151.748 162.65 150.797 164.96 148.885C165.5 148.469 166 147.984 166.43 147.449C166.86 146.904 167.23 146.33 167.53 145.705C167.83 145.081 168.06 144.437 168.21 143.764C168.35 143.09 168.42 142.407 168.42 141.723C168.44 141.129 168.4 140.544 168.29 139.96C168.19 139.385 168.02 138.82 167.78 138.276C167.55 137.731 167.26 137.216 166.91 136.74C166.57 136.265 166.17 135.829 165.72 135.432C165.12 134.967 164.49 134.531 163.84 134.125C163.19 133.719 162.52 133.352 161.83 133.015C161.15 132.678 160.44 132.381 159.72 132.114C159 131.856 158.27 131.628 157.52 131.44L149.32 128.904C148.57 128.666 147.82 128.419 147.07 128.161C146.32 127.903 145.58 127.626 144.84 127.349C144.1 127.061 143.37 126.764 142.65 126.447C141.92 126.14 141.2 125.813 140.48 125.476C139.87 125.179 139.26 124.872 138.66 124.535C138.07 124.208 137.49 123.852 136.92 123.475C136.35 123.099 135.8 122.693 135.26 122.277C134.72 121.86 134.2 121.425 133.69 120.969C133.23 120.543 132.79 120.087 132.37 119.622C131.95 119.146 131.56 118.651 131.19 118.145C130.83 117.63 130.49 117.105 130.18 116.56C129.87 116.006 129.59 115.451 129.34 114.876C129.07 114.213 128.83 113.549 128.63 112.865C128.43 112.182 128.26 111.488 128.13 110.795C128.01 110.101 127.91 109.398 127.86 108.685C127.8 107.981 127.78 107.268 127.8 106.565C127.8 99.7094 130.4 94.2707 135.62 90.2487C140.83 86.2266 147.96 84.2156 157.01 84.2156C157.85 84.2156 158.68 84.2255 159.51 84.2552C160.34 84.2948 161.17 84.3444 162 84.4137C162.83 84.483 163.65 84.5623 164.48 84.6713C165.3 84.7802 166.13 84.8991 166.94 85.0477C167.62 85.1567 168.29 85.2954 168.96 85.444C169.63 85.6025 170.29 85.7709 170.95 85.9591C171.61 86.1473 172.26 86.3653 172.91 86.5931C173.55 86.821 174.19 87.0687 174.82 87.3262C175.32 87.5343 175.8 87.7621 176.27 88.0098C176.74 88.2673 177.19 88.5447 177.62 88.8518C178.06 89.1589 178.48 89.4859 178.88 89.8326C179.28 90.1793 179.66 90.5558 180.01 90.952C180.31 91.2789 180.57 91.6356 180.8 92.012C181.03 92.3885 181.23 92.7847 181.39 93.1909C181.55 93.607 181.66 94.033 181.74 94.4589C181.83 94.8948 181.87 95.3307 181.87 95.7765C181.88 96.153 181.86 96.5393 181.81 96.9257C181.76 97.3021 181.69 97.6786 181.58 98.055C181.48 98.4216 181.35 98.7881 181.19 99.1348C181.04 99.4915 180.86 99.8283 180.65 100.155C180.45 100.452 180.24 100.74 180.02 101.017C179.79 101.285 179.55 101.552 179.3 101.8C179.05 102.057 178.78 102.285 178.5 102.513C178.23 102.731 177.94 102.939 177.64 103.137C177.01 102.721 176.37 102.335 175.72 101.968C175.06 101.611 174.39 101.265 173.71 100.958C173.03 100.641 172.34 100.353 171.64 100.096C170.93 99.8283 170.22 99.6004 169.5 99.3924C168.6 99.115 167.7 98.8773 166.78 98.6791C165.87 98.4711 164.95 98.3126 164.02 98.1739C163.09 98.0451 162.16 97.946 161.23 97.8866C160.29 97.8173 159.35 97.7974 158.42 97.8074C153.98 97.8074 150.6 98.59 148.3 100.155C147.76 100.492 147.26 100.898 146.83 101.364C146.39 101.829 146.02 102.345 145.71 102.909C145.41 103.464 145.18 104.058 145.04 104.682C144.89 105.297 144.82 105.931 144.84 106.565C144.81 107.05 144.84 107.536 144.94 108.011C145.03 108.487 145.18 108.952 145.39 109.398C145.59 109.834 145.85 110.25 146.16 110.626C146.46 111.003 146.82 111.35 147.21 111.637C147.78 112.023 148.37 112.38 148.97 112.717C149.58 113.054 150.19 113.361 150.82 113.648C151.45 113.935 152.09 114.193 152.74 114.431C153.38 114.668 154.04 114.886 154.71 115.065L162.01 117.353C169.44 119.552 175.21 122.564 179.31 126.368C183.41 130.172 185.46 135.333 185.46 141.842C185.47 142.664 185.43 143.486 185.35 144.299C185.27 145.111 185.14 145.923 184.97 146.716C184.79 147.518 184.58 148.311 184.32 149.084C184.06 149.856 183.75 150.619 183.4 151.362C183.06 152.085 182.68 152.789 182.25 153.462C181.82 154.146 181.36 154.79 180.86 155.414C180.36 156.038 179.82 156.642 179.25 157.197C178.68 157.762 178.08 158.297 177.45 158.792C176.73 159.347 175.98 159.862 175.2 160.337C174.43 160.823 173.63 161.269 172.82 161.675C172 162.081 171.16 162.438 170.31 162.765C169.46 163.091 168.59 163.369 167.71 163.616C166.63 163.914 165.55 164.171 164.45 164.399C163.35 164.617 162.25 164.795 161.14 164.944C160.03 165.083 158.92 165.192 157.8 165.251C156.69 165.32 155.57 165.34 154.45 165.33C153.54 165.33 152.63 165.32 151.73 165.281C150.82 165.241 149.91 165.182 149.01 165.093C148.11 165.013 147.2 164.904 146.31 164.776C145.41 164.637 144.51 164.488 143.62 164.31C142.89 164.171 142.16 164.003 141.43 163.825C140.71 163.636 139.99 163.428 139.28 163.2C138.57 162.973 137.86 162.725 137.17 162.457C136.47 162.19 135.78 161.893 135.1 161.586C134.57 161.348 134.05 161.08 133.55 160.793C133.05 160.506 132.57 160.189 132.1 159.842C131.63 159.505 131.18 159.139 130.75 158.752C130.32 158.366 129.91 157.95 129.53 157.524C129.22 157.167 128.93 156.791 128.69 156.395C128.44 155.988 128.23 155.572 128.06 155.127C127.9 154.691 127.77 154.235 127.68 153.779C127.59 153.314 127.55 152.848 127.54 152.382C127.53 151.927 127.56 151.481 127.63 151.035C127.7 150.589 127.81 150.144 127.96 149.718C128.1 149.292 128.29 148.885 128.51 148.489C128.73 148.093 128.99 147.716 129.27 147.37C129.54 147.033 129.83 146.716 130.14 146.419C130.44 146.122 130.76 145.834 131.1 145.577C131.44 145.309 131.8 145.071 132.17 144.854C132.54 144.626 132.92 144.428 133.31 144.259C133.94 144.784 134.6 145.289 135.27 145.775C135.95 146.25 136.64 146.706 137.34 147.132C138.05 147.568 138.78 147.974 139.51 148.351C140.25 148.727 141 149.074 141.76 149.401C142.73 149.807 143.72 150.163 144.73 150.471C145.73 150.778 146.76 151.025 147.79 151.223C148.82 151.422 149.86 151.56 150.91 151.649C151.96 151.739 153.01 151.768 154.06 151.748Z" fill="#3356A6"/>
<path d="M204.03 164.181C200.78 164.181 198.48 163.587 197.11 162.408C195.75 161.219 195.06 159.238 195.06 156.444V86.2464C195.83 86.078 196.94 85.87 198.39 85.6124C198.75 85.553 199.11 85.4935 199.48 85.4539C199.84 85.4044 200.2 85.3647 200.56 85.335C200.93 85.2954 201.29 85.2756 201.66 85.2558C202.02 85.2459 202.39 85.236 202.75 85.236C205.83 85.236 208.09 85.7907 209.54 86.8804C210.99 87.9801 211.72 90.0208 211.72 92.9829V163.171C210.95 163.339 209.86 163.547 208.45 163.805C208.09 163.864 207.72 163.924 207.35 163.973C206.99 164.023 206.62 164.062 206.25 164.092C205.88 164.122 205.51 164.151 205.14 164.161C204.77 164.181 204.4 164.181 204.03 164.181Z" fill="#3356A6"/>
<path d="M234.91 164.181C231.75 164.181 229.53 163.616 228.25 162.467C226.97 161.328 226.32 159.406 226.32 156.692V89.04C226.6 88.723 226.89 88.4159 227.21 88.1385C227.52 87.8513 227.86 87.5937 228.21 87.3559C228.56 87.1281 228.93 86.9101 229.31 86.7318C229.69 86.5436 230.08 86.3851 230.49 86.2464C230.97 86.078 231.47 85.9294 231.97 85.8006C232.47 85.6619 232.98 85.5628 233.49 85.4737C233.99 85.3845 234.51 85.3251 235.02 85.2855C235.54 85.2458 236.06 85.226 236.57 85.2359C237.18 85.226 237.79 85.2458 238.4 85.3053C239 85.3548 239.61 85.444 240.2 85.5628C240.8 85.6718 241.39 85.8204 241.97 85.9987C242.55 86.1869 243.13 86.395 243.69 86.6327C244.28 86.9398 244.85 87.2866 245.39 87.6828C245.94 88.0791 246.44 88.515 246.92 88.9905C247.39 89.466 247.82 89.9713 248.22 90.5161C248.61 91.0511 248.96 91.6256 249.26 92.22L267.71 125.09C269.42 128.141 271.06 131.291 272.64 134.551C274.22 137.8 275.61 140.792 276.81 143.496L277.32 143.368C276.89 138.375 276.62 133.53 276.49 128.835C276.36 124.139 276.3 119.503 276.3 114.936V86.1275C276.98 85.9591 278.03 85.761 279.44 85.5529C279.79 85.5034 280.15 85.4539 280.5 85.4142C280.86 85.3746 281.22 85.3449 281.58 85.3152C281.93 85.2855 282.29 85.2656 282.65 85.2557C283.01 85.2458 283.37 85.2359 283.73 85.2359C286.89 85.2359 289.13 85.8105 290.45 86.9498C291.78 88.089 292.44 90.0208 292.44 92.7253V161.269C292.16 161.526 291.86 161.764 291.54 161.992C291.23 162.21 290.9 162.408 290.56 162.596C290.22 162.774 289.86 162.933 289.5 163.072C289.14 163.21 288.78 163.329 288.4 163.418C287.89 163.557 287.38 163.676 286.87 163.775C286.36 163.874 285.84 163.953 285.32 164.023C284.8 164.082 284.28 164.132 283.76 164.151C283.23 164.181 282.71 164.191 282.19 164.181C281.59 164.191 280.99 164.171 280.4 164.122C279.8 164.062 279.21 163.983 278.63 163.874C278.04 163.755 277.46 163.616 276.89 163.448C276.32 163.28 275.75 163.082 275.2 162.854C273.11 161.962 271.25 160.119 269.63 157.326L251.18 124.456C249.47 121.494 247.83 118.344 246.25 115.005C244.67 111.657 243.28 108.635 242.08 105.921L241.31 106.05C241.74 110.706 242.02 115.49 242.15 120.394C242.28 125.298 242.34 129.954 242.34 134.353V163.171C241.65 163.339 240.63 163.547 239.26 163.805C238.91 163.864 238.54 163.924 238.18 163.973C237.82 164.023 237.46 164.062 237.1 164.092C236.73 164.122 236.37 164.151 236 164.161C235.64 164.181 235.27 164.181 234.91 164.181Z" fill="#3356A6"/>
<path fill-rule="evenodd" clip-rule="evenodd" d="M380.71 124.714C380.74 126.2 380.7 127.685 380.59 129.171C380.48 130.657 380.3 132.134 380.05 133.6C379.81 135.066 379.49 136.522 379.11 137.968C378.73 139.405 378.28 140.831 377.77 142.228C377.33 143.417 376.82 144.586 376.26 145.715C375.69 146.855 375.07 147.964 374.38 149.034C373.7 150.104 372.96 151.134 372.17 152.135C371.37 153.126 370.53 154.077 369.63 154.978C368.76 155.84 367.84 156.652 366.88 157.415C365.92 158.168 364.92 158.881 363.88 159.525C362.84 160.179 361.77 160.773 360.66 161.308C359.56 161.843 358.43 162.319 357.27 162.725C356.03 163.161 354.77 163.547 353.49 163.884C352.22 164.211 350.93 164.488 349.63 164.706C348.33 164.924 347.03 165.083 345.71 165.192C344.4 165.291 343.08 165.34 341.76 165.33C340.45 165.34 339.13 165.291 337.82 165.192C336.5 165.083 335.2 164.924 333.9 164.706C332.6 164.488 331.31 164.211 330.04 163.884C328.76 163.547 327.5 163.171 326.26 162.725C325.11 162.319 323.97 161.843 322.87 161.308C321.76 160.773 320.69 160.179 319.65 159.535C318.61 158.881 317.61 158.178 316.65 157.415C315.69 156.652 314.77 155.84 313.9 154.978C313.01 154.077 312.16 153.126 311.37 152.135C310.57 151.134 309.83 150.104 309.15 149.034C308.47 147.964 307.84 146.855 307.27 145.715C306.71 144.586 306.21 143.417 305.76 142.228C305.25 140.831 304.8 139.405 304.42 137.968C304.04 136.532 303.72 135.076 303.48 133.6C303.23 132.134 303.05 130.657 302.94 129.171C302.83 127.685 302.79 126.2 302.81 124.714C302.79 123.228 302.83 121.742 302.94 120.265C303.05 118.78 303.24 117.303 303.49 115.847C303.74 114.381 304.06 112.925 304.45 111.498C304.84 110.062 305.3 108.645 305.83 107.258C306.28 106.069 306.8 104.91 307.37 103.781C307.95 102.652 308.59 101.542 309.28 100.482C309.98 99.4122 310.73 98.3819 311.53 97.4012C312.33 96.4105 313.19 95.4595 314.09 94.5679C314.96 93.7061 315.88 92.9036 316.85 92.1408C317.81 91.3879 318.81 90.6846 319.85 90.0307C320.89 89.3868 321.96 88.7924 323.06 88.2476C324.17 87.7126 325.3 87.2371 326.45 86.821C327.68 86.3851 328.92 85.9988 330.18 85.6719C331.44 85.335 332.71 85.0676 333.99 84.8496C335.27 84.6317 336.57 84.4633 337.86 84.3642C339.16 84.2552 340.46 84.2057 341.76 84.2156C343.07 84.2057 344.37 84.2552 345.66 84.3642C346.96 84.4633 348.25 84.6317 349.54 84.8496C350.82 85.0676 352.09 85.335 353.35 85.6719C354.61 85.9988 355.85 86.3851 357.07 86.821C358.23 87.2371 359.36 87.7126 360.46 88.2476C361.57 88.7924 362.64 89.3868 363.68 90.0307C364.72 90.6846 365.72 91.3879 366.68 92.1408C367.64 92.9036 368.56 93.7061 369.44 94.5679C370.34 95.4694 371.2 96.4105 372 97.4012C372.8 98.3819 373.55 99.4122 374.24 100.482C374.94 101.552 375.57 102.652 376.15 103.781C376.73 104.91 377.25 106.069 377.7 107.258C378.23 108.645 378.69 110.062 379.08 111.498C379.47 112.925 379.79 114.381 380.04 115.847C380.29 117.303 380.48 118.78 380.59 120.265C380.7 121.742 380.74 123.228 380.71 124.714ZM363.67 124.714C363.67 115.907 361.69 109.2 357.72 104.593C353.74 99.9769 348.43 97.6786 341.76 97.6786C335.19 97.6786 329.91 99.9571 325.94 104.524C321.97 109.101 319.98 115.827 319.98 124.714C319.98 133.6 321.95 140.326 325.88 144.893C329.81 149.46 335.1 151.748 341.76 151.748C348.43 151.748 353.74 149.46 357.72 144.893C361.69 140.326 363.67 133.59 363.67 124.714Z" fill="#3356A6"/>
<path d="M442.47 86.2564C442.6 86.4644 442.72 86.6823 442.83 86.9102C442.95 87.1281 443.06 87.356 443.16 87.5838C443.26 87.8117 443.35 88.0395 443.44 88.2773C443.53 88.5051 443.61 88.7429 443.69 88.9807C443.79 89.2779 443.87 89.585 443.95 89.8921C444.02 90.1992 444.08 90.5162 444.13 90.8332C444.18 91.1403 444.21 91.4573 444.23 91.7743C444.26 92.0913 444.27 92.4083 444.26 92.7253C444.3 93.1909 444.29 93.6565 444.24 94.1122C444.18 94.5779 444.09 95.0336 443.95 95.4694C443.81 95.9152 443.64 96.3511 443.42 96.7573C443.21 97.1734 442.95 97.5597 442.66 97.9263C442.39 98.2235 442.09 98.4909 441.77 98.7188C441.44 98.9466 441.09 99.1349 440.72 99.2934C440.35 99.442 439.96 99.5608 439.57 99.6302C439.17 99.6995 438.77 99.7193 438.37 99.7094H407.49V119.889H438.12C438.24 120.097 438.36 120.315 438.47 120.523C438.59 120.741 438.69 120.969 438.8 121.187C438.9 121.405 438.99 121.633 439.08 121.86C439.17 122.088 439.25 122.316 439.33 122.554C439.43 122.851 439.52 123.148 439.59 123.455C439.67 123.753 439.73 124.06 439.77 124.367C439.82 124.674 439.86 124.991 439.88 125.298C439.9 125.605 439.91 125.922 439.91 126.229C439.94 126.695 439.93 127.151 439.88 127.606C439.83 128.062 439.74 128.518 439.6 128.954C439.46 129.389 439.29 129.815 439.07 130.222C438.85 130.628 438.6 131.014 438.31 131.371C438.03 131.658 437.73 131.916 437.4 132.134C437.07 132.361 436.72 132.55 436.35 132.688C435.98 132.837 435.6 132.946 435.2 133.015C434.81 133.085 434.41 133.104 434.01 133.085H407.75V163.171C406.98 163.339 405.89 163.547 404.48 163.805C404.12 163.864 403.75 163.924 403.38 163.973C403.02 164.023 402.65 164.062 402.28 164.092C401.91 164.122 401.54 164.151 401.17 164.161C400.8 164.181 400.43 164.181 400.06 164.181C396.81 164.181 394.51 163.587 393.14 162.408C391.78 161.229 391.09 159.238 391.09 156.444V95.0137C391.06 94.4293 391.09 93.8349 391.18 93.2603C391.26 92.6857 391.41 92.1111 391.61 91.5663C391.82 91.0115 392.08 90.4864 392.39 89.9911C392.7 89.4859 393.06 89.0203 393.46 88.6042C393.89 88.198 394.36 87.8414 394.86 87.5343C395.37 87.2272 395.9 86.9696 396.45 86.7715C397.01 86.5635 397.58 86.4248 398.17 86.3356C398.75 86.2465 399.34 86.2167 399.93 86.2564H442.47Z" fill="#3356A6"/>
<path fill-rule="evenodd" clip-rule="evenodd" d="M496.54 145.141H467.84C466.9 148.281 465.89 151.531 464.83 154.919C463.76 158.307 462.89 161.09 462.2 163.299C461.98 163.389 461.75 163.468 461.52 163.547C461.3 163.626 461.07 163.706 460.84 163.785C460.61 163.854 460.38 163.934 460.15 163.993C459.91 164.062 459.68 164.132 459.45 164.191C459.15 164.26 458.85 164.32 458.54 164.369C458.24 164.419 457.94 164.459 457.63 164.488C457.33 164.528 457.02 164.548 456.72 164.558C456.41 164.568 456.1 164.577 455.79 164.568C455.2 164.607 454.61 164.587 454.02 164.538C453.43 164.478 452.84 164.379 452.27 164.231C451.69 164.092 451.13 163.904 450.58 163.666C450.04 163.438 449.51 163.171 449 162.854C448.61 162.586 448.25 162.269 447.94 161.903C447.63 161.546 447.36 161.15 447.15 160.724C446.94 160.298 446.78 159.852 446.68 159.386C446.59 158.921 446.55 158.445 446.57 157.97C446.57 157.712 446.58 157.465 446.6 157.217C446.62 156.959 446.64 156.712 446.68 156.464C446.72 156.206 446.77 155.959 446.82 155.721C446.88 155.473 446.94 155.226 447.02 154.988C447.32 154.017 447.68 152.898 448.11 151.62C448.79 149.252 449.71 146.399 450.86 143.051C452.01 139.712 453.25 136.076 454.58 132.143C455.9 128.201 457.33 124.139 458.87 119.958C460.41 115.768 461.88 111.706 463.29 107.773C464.7 103.831 466.07 100.155 467.39 96.7275C468.72 93.2999 469.85 90.3576 470.79 87.9008C471.18 87.7126 471.58 87.5343 471.99 87.3659C472.39 87.1974 472.8 87.0389 473.21 86.8903C473.62 86.7417 474.04 86.6031 474.46 86.4743C474.88 86.3455 475.3 86.2365 475.72 86.1275C476.26 85.9789 476.8 85.8502 477.35 85.7412C477.89 85.6322 478.44 85.5331 478.99 85.4638C479.54 85.3845 480.1 85.335 480.65 85.2954C481.21 85.2558 481.77 85.236 482.32 85.236C483.02 85.226 483.72 85.2459 484.41 85.3053C485.1 85.3548 485.79 85.4341 486.48 85.553C487.17 85.6619 487.85 85.8006 488.52 85.969C489.2 86.1374 489.87 86.3455 490.52 86.5733C491.06 86.7219 491.57 86.93 492.05 87.1875C492.54 87.455 492.99 87.772 493.4 88.1485C493.81 88.515 494.17 88.9212 494.49 89.3769C494.8 89.8227 495.06 90.3081 495.26 90.8232C496.97 95.4793 498.84 100.829 500.89 106.872C502.94 112.925 505.02 119.166 507.11 125.595C509.2 132.034 511.23 138.335 513.19 144.517C515.16 150.688 516.91 156.236 518.45 161.14C518.2 161.397 517.94 161.635 517.67 161.863C517.39 162.091 517.11 162.309 516.81 162.497C516.52 162.695 516.21 162.883 515.89 163.042C515.58 163.21 515.25 163.359 514.92 163.488C514.5 163.656 514.07 163.805 513.64 163.924C513.2 164.052 512.76 164.151 512.31 164.231C511.87 164.31 511.42 164.369 510.96 164.399C510.51 164.439 510.06 164.449 509.61 164.439C506.62 164.439 504.5 163.914 503.26 162.854C502.91 162.517 502.58 162.15 502.28 161.764C501.98 161.378 501.71 160.971 501.46 160.555C501.22 160.129 501 159.684 500.82 159.238C500.64 158.782 500.5 158.317 500.38 157.841L496.54 145.141ZM482.19 99.7094C481.42 101.82 480.58 104.187 479.69 106.812C478.79 109.438 477.85 112.172 476.87 114.995C475.89 117.838 474.88 120.711 473.86 123.634C472.84 126.546 471.85 129.409 470.91 132.203H493.21L482.83 99.7094H482.19Z" fill="#3356A6"/>
<path fill-rule="evenodd" clip-rule="evenodd" d="M542.79 163.171C542.02 163.329 540.93 163.547 539.52 163.805C539.14 163.864 538.77 163.924 538.39 163.973C538.01 164.023 537.63 164.062 537.25 164.092C536.88 164.122 536.49 164.151 536.11 164.161C535.73 164.181 535.35 164.181 534.97 164.181C531.73 164.181 529.44 163.587 528.12 162.408C526.79 161.219 526.13 159.228 526.13 156.434V92.7253C526.11 92.3885 526.12 92.0616 526.16 91.7247C526.21 91.3978 526.28 91.0709 526.39 90.7539C526.5 90.4369 526.65 90.1397 526.82 89.8524C526.99 89.5651 527.19 89.2877 527.41 89.0401C527.67 88.8122 527.93 88.5943 528.21 88.3862C528.49 88.1782 528.79 87.99 529.09 87.8216C529.39 87.6531 529.7 87.4946 530.02 87.3659C530.34 87.2272 530.67 87.1083 531 87.0092C531.78 86.7616 532.58 86.5238 533.37 86.3158C534.17 86.1077 534.97 85.9195 535.78 85.761C536.59 85.5926 537.4 85.4539 538.22 85.335C539.03 85.2161 539.85 85.1171 540.67 85.0477C541.63 84.9487 542.58 84.8694 543.53 84.7902C544.49 84.7208 545.44 84.6614 546.4 84.6118C547.35 84.5623 548.31 84.5326 549.27 84.5128C550.22 84.4831 551.18 84.4731 552.14 84.4731C563.41 84.4731 571.87 86.7814 577.5 91.3879C583.14 96.0044 585.96 102.374 585.96 110.498C585.99 111.726 585.92 112.954 585.75 114.173C585.59 115.391 585.32 116.6 584.96 117.779C584.61 118.958 584.16 120.107 583.61 121.217C583.07 122.316 582.45 123.386 581.74 124.397C581 125.397 580.2 126.348 579.33 127.25C578.46 128.141 577.53 128.973 576.55 129.736C575.56 130.509 574.53 131.202 573.44 131.826C572.36 132.451 571.24 132.995 570.08 133.471C573.84 138.285 577.44 142.882 580.9 147.241C584.36 151.6 586.95 155.008 588.66 157.455C588.51 157.97 588.32 158.465 588.1 158.941C587.87 159.426 587.6 159.882 587.3 160.318C586.99 160.763 586.65 161.17 586.28 161.546C585.9 161.932 585.5 162.279 585.07 162.596C584.66 162.893 584.24 163.161 583.79 163.389C583.34 163.616 582.88 163.815 582.4 163.973C581.92 164.122 581.43 164.241 580.93 164.32C580.44 164.399 579.93 164.439 579.43 164.439C578.89 164.468 578.35 164.459 577.81 164.399C577.28 164.34 576.75 164.241 576.23 164.082C575.71 163.934 575.21 163.735 574.72 163.498C574.24 163.26 573.78 162.982 573.35 162.656C572.94 162.309 572.56 161.942 572.18 161.566C571.8 161.189 571.44 160.793 571.09 160.387C570.75 159.991 570.41 159.575 570.09 159.149C569.77 158.723 569.47 158.287 569.18 157.841L554.7 136.383H542.79V163.171ZM553.04 123.445C557.9 123.445 561.81 122.385 564.76 120.275C567.71 118.155 569.18 114.946 569.18 110.626C569.18 102.077 563.41 97.8074 551.88 97.8074C551.47 97.8074 551.06 97.8074 550.65 97.8173C550.23 97.8272 549.82 97.847 549.41 97.8668C549 97.8866 548.59 97.9163 548.18 97.946C547.77 97.9758 547.36 98.0154 546.95 98.055C545.37 98.2333 543.89 98.4017 542.53 98.5702V123.445H553.04Z" fill="#3356A6"/>
<path d="M646.83 143.873C646.58 144.061 646.32 144.239 646.05 144.398C645.79 144.566 645.52 144.715 645.24 144.854C644.96 144.992 644.67 145.121 644.38 145.23C644.09 145.339 643.8 145.438 643.5 145.527C643.11 145.636 642.72 145.735 642.33 145.814C641.94 145.904 641.55 145.963 641.15 146.023C640.75 146.072 640.35 146.112 639.95 146.131C639.55 146.161 639.15 146.171 638.75 146.161C638.28 146.171 637.81 146.161 637.34 146.141C636.87 146.112 636.4 146.062 635.93 145.993C635.46 145.923 635 145.834 634.54 145.725C634.08 145.616 633.63 145.488 633.18 145.339C632.83 145.21 632.49 145.052 632.17 144.863C631.85 144.665 631.55 144.437 631.28 144.18C631.01 143.932 630.77 143.645 630.56 143.338C630.35 143.031 630.18 142.694 630.04 142.347C626.54 133.719 623.59 126.358 621.2 120.266C618.81 114.173 616.89 108.972 615.44 104.653H614.8C614.54 110.329 614.3 115.53 614.09 120.266C613.88 125.001 613.68 129.637 613.51 134.164C613.34 138.692 613.15 143.288 612.94 147.934C612.72 152.591 612.45 157.623 612.1 163.042C611.25 163.3 610.18 163.547 608.9 163.805C608.57 163.864 608.23 163.924 607.89 163.973C607.55 164.023 607.21 164.062 606.86 164.092C606.52 164.122 606.18 164.151 605.83 164.161C605.49 164.181 605.15 164.181 604.8 164.181C599.08 164.181 596.22 162.071 596.22 157.841C596.22 156.484 596.28 154.394 596.41 151.55C596.54 148.717 596.71 145.418 596.92 141.654C597.14 137.889 597.39 133.768 597.69 129.28C597.99 124.793 598.29 120.266 598.59 115.699C598.89 111.132 599.21 106.624 599.55 102.176C599.9 97.738 600.2 93.6169 600.45 89.8029C600.72 89.5255 601 89.258 601.29 89.0104C601.58 88.7627 601.89 88.5249 602.2 88.307C602.52 88.0891 602.85 87.8909 603.19 87.7027C603.52 87.5145 603.87 87.356 604.23 87.1975C604.78 86.9597 605.35 86.7517 605.94 86.5734C606.52 86.395 607.11 86.2464 607.71 86.1375C608.3 86.0285 608.91 85.9492 609.51 85.8997C610.12 85.8601 610.73 85.8502 611.34 85.87C612.01 85.8403 612.69 85.8502 613.37 85.9096C614.04 85.9591 614.71 86.0582 615.37 86.187C616.04 86.3257 616.69 86.4941 617.33 86.7021C617.98 86.9201 618.61 87.1677 619.22 87.455C619.74 87.7423 620.23 88.0791 620.69 88.4556C621.15 88.8221 621.58 89.2382 621.97 89.684C622.35 90.1397 622.7 90.6152 623 91.1304C623.3 91.6356 623.56 92.1705 623.77 92.7253C624.88 95.3505 626.05 98.2234 627.29 101.354C628.53 104.484 629.79 107.694 631.07 111.003C632.35 114.302 633.61 117.541 634.85 120.711C636.09 123.881 637.26 126.863 638.37 129.657H638.88C641.79 121.702 644.67 114.005 647.53 106.555C650.39 99.115 652.89 92.8046 655.03 87.6433C655.34 87.5046 655.66 87.3659 655.99 87.2371C656.31 87.1083 656.64 86.9993 656.97 86.8904C657.3 86.7814 657.64 86.6922 657.98 86.6031C658.32 86.5139 658.66 86.4446 659 86.3752C659.41 86.296 659.82 86.2167 660.24 86.1573C660.65 86.0879 661.07 86.0384 661.49 85.9988C661.9 85.9492 662.32 85.9195 662.74 85.8997C663.16 85.8799 663.58 85.87 664 85.87C664.64 85.8403 665.29 85.8502 665.94 85.8997C666.58 85.9393 667.22 86.0186 667.86 86.1375C668.5 86.2563 669.12 86.4148 669.74 86.6031C670.36 86.7913 670.97 87.0092 671.56 87.2668C671.99 87.455 672.4 87.7027 672.77 87.9801C673.15 88.2674 673.49 88.5943 673.79 88.9608C674.09 89.3175 674.34 89.7137 674.55 90.1298C674.76 90.5558 674.91 91.0016 675.02 91.4573C675.36 93.0621 675.74 95.618 676.17 99.1348C676.6 102.642 677.03 106.644 677.45 111.132C677.88 115.609 678.31 120.394 678.73 125.466C679.16 130.548 679.54 135.432 679.89 140.128C680.23 144.834 680.53 149.123 680.79 153.017C681.05 156.91 681.22 159.951 681.3 162.15C681.03 162.319 680.75 162.477 680.46 162.626C680.18 162.774 679.89 162.913 679.59 163.042C679.3 163.171 679 163.29 678.69 163.389C678.39 163.498 678.08 163.597 677.77 163.676C677.4 163.765 677.03 163.844 676.65 163.914C676.28 163.983 675.9 164.043 675.52 164.082C675.14 164.122 674.76 164.151 674.37 164.171C673.99 164.191 673.61 164.191 673.23 164.181C672.72 164.201 672.22 164.181 671.72 164.122C671.22 164.072 670.72 163.993 670.23 163.884C669.74 163.765 669.25 163.626 668.78 163.458C668.31 163.28 667.84 163.082 667.4 162.854C665.73 161.962 664.81 160.298 664.64 157.841C664.3 152.511 664 147.281 663.74 142.169C663.49 137.047 663.27 132.203 663.1 127.626C662.93 123.059 662.76 118.849 662.59 114.995C662.41 111.151 662.29 107.833 662.2 105.039H661.56C660.19 109.012 658.31 114.064 655.93 120.196C653.54 126.328 650.5 134.224 646.83 143.873Z" fill="#3356A6"/>
<path d="M87.22 40.0026C87.54 39.8243 87.91 39.7649 88.27 39.8243C88.63 39.8837 88.96 40.0521 89.2 40.3196C89.45 40.5871 89.6 40.9239 89.63 41.2806C89.66 41.6372 89.57 42.0037 89.38 42.3009C81.33 54.5157 74.58 66.572 69.96 79.0542C69.31 80.7779 68.71 82.5116 68.15 84.265C67.59 86.0185 67.08 87.7918 66.62 89.565C66.16 91.3482 65.75 93.1413 65.39 94.9443C65.02 96.7473 64.71 98.5602 64.45 100.373C64.15 102.127 64.08 103.87 63.87 105.594C63.85 105.742 63.84 105.891 63.83 106.03C63.81 106.178 63.8 106.327 63.79 106.466C63.79 106.614 63.78 106.763 63.78 106.911C63.77 107.06 63.77 107.199 63.77 107.347C63.77 108.704 63.68 109.576 63.69 111.013L63.4 123.277L62.82 135.541C62.52 139.643 62.31 143.665 61.94 147.825C61.75 150.114 61.45 152.382 61.04 154.641C60.64 156.9 60.13 159.139 59.53 161.348C58.93 163.567 58.22 165.746 57.42 167.896C56.62 170.046 55.72 172.166 54.73 174.236C53.79 176.227 52.77 178.179 51.68 180.101C50.59 182.013 49.43 183.895 48.2 185.718C46.97 187.551 45.66 189.334 44.3 191.067C42.93 192.801 41.49 194.485 40 196.11C38.52 197.705 36.99 199.24 35.44 200.736C33.89 202.153 32.37 203.579 30.78 204.956C29.1 206.472 27.38 207.948 25.62 209.404C25.35 209.622 25.01 209.741 24.66 209.751C24.31 209.761 23.97 209.662 23.69 209.454C23.41 209.246 23.2 208.959 23.11 208.622C23.01 208.285 23.03 207.928 23.16 207.611C24.03 205.511 24.94 203.451 25.89 201.41C26.75 199.498 27.67 197.626 28.57 195.743C29.41 193.911 30.29 192.127 31.05 190.295C31.84 188.541 32.6 186.758 33.31 184.975C34.02 183.182 34.69 181.379 35.32 179.556C35.95 177.733 36.55 175.901 37.1 174.058C37.65 172.205 38.16 170.353 38.63 168.481C39.08 166.737 39.47 164.964 39.81 163.19C40.15 161.417 40.43 159.624 40.65 157.831C40.88 156.038 41.04 154.235 41.15 152.432C41.26 150.629 41.31 148.816 41.3 147.013L41.33 134.788L41.64 122.524L42.23 110.27C42.28 109.319 42.41 108.041 42.53 106.901C42.65 105.733 42.73 104.554 42.91 103.404C42.99 102.82 43.07 102.245 43.17 101.681C43.26 101.106 43.36 100.532 43.47 99.957C43.58 99.3923 43.7 98.8177 43.82 98.2531C43.94 97.6884 44.07 97.1237 44.21 96.5591C44.74 94.3499 45.36 92.1705 46.06 90.0207C46.76 87.871 47.55 85.751 48.43 83.6607C49.3 81.5705 50.26 79.5099 51.3 77.4989C52.34 75.4878 53.46 73.5164 54.66 71.5946C56.66 68.3452 58.86 65.2247 61.25 62.2428C63.63 59.2708 66.21 56.4376 68.95 53.7826C71.69 51.1177 74.6 48.6312 77.65 46.323C80.71 44.0247 83.9 41.9047 87.22 40.0026Z" fill="#23B572"/>
<path d="M4.42994 110.062H102.81C103.82 110.062 104.81 110.349 105.67 110.874C106.54 111.399 107.23 112.162 107.68 113.054C108.14 113.955 108.33 114.956 108.24 115.956C108.14 116.957 107.77 117.918 107.16 118.72L102.81 124.446C102.34 125.05 101.87 125.635 101.38 126.219C100.89 126.804 100.39 127.369 99.8799 127.933C99.3699 128.488 98.8399 129.033 98.3099 129.568C97.7699 130.103 97.2199 130.628 96.6599 131.143C95.6299 132.143 94.6099 132.936 93.5799 133.837C92.5599 134.63 91.5299 135.442 90.5099 136.205C89.5499 136.899 88.5799 137.562 87.5899 138.206C86.5999 138.84 85.5899 139.445 84.5599 140.029C83.5299 140.614 82.4899 141.158 81.4299 141.683C80.3699 142.199 79.2999 142.694 78.2099 143.15C76.2799 143.962 74.2999 144.675 72.2899 145.27C70.2699 145.874 68.2299 146.359 66.1599 146.746C64.0999 147.122 62.0099 147.39 59.9199 147.538C57.8199 147.697 55.7199 147.736 53.6199 147.667C51.5099 147.617 49.3999 147.459 47.3099 147.211C45.2099 146.964 43.1299 146.607 41.0699 146.161C38.9999 145.715 36.9599 145.171 34.9499 144.537C32.9399 143.893 30.9699 143.16 29.0299 142.337C26.9799 141.446 24.9299 140.465 22.8799 139.336C21.8499 138.761 20.8299 138.186 19.7999 137.513C18.7799 136.839 17.7499 136.274 16.7299 135.502C16.1899 135.135 15.6599 134.759 15.1399 134.372C14.6099 133.986 14.0999 133.59 13.5799 133.194C13.0699 132.787 12.5599 132.381 12.0599 131.965C11.5599 131.549 11.0699 131.133 10.5799 130.697C10.0299 130.222 9.47994 129.736 8.94994 129.231C8.40994 128.736 7.88994 128.22 7.36994 127.695C6.85994 127.18 6.35994 126.645 5.86994 126.1C5.37994 125.566 4.89994 125.011 4.42994 124.446L0.0699412 119.136C-0.390059 118.571 -0.740059 117.918 -0.950059 117.214C-1.16006 116.521 -1.23006 115.788 -1.15006 115.055C-1.08006 114.331 -0.860059 113.628 -0.510059 112.984C-0.160059 112.34 0.319941 111.776 0.889941 111.31C1.13994 111.112 1.39994 110.934 1.67994 110.775C1.95994 110.626 2.24994 110.488 2.54994 110.389C2.84994 110.28 3.15994 110.2 3.47994 110.141C3.78994 110.091 4.10994 110.062 4.42994 110.062Z" fill="#3356A6"/>
</g>
<rect x="128" y="196" width="559" height="108" fill="#23B572"/>
<path d="M222.52 258.035L231.692 225.789H236.135L233.564 238.326L223.694 272H219.282L222.52 258.035ZM213.03 225.789L220.33 257.4L222.52 272H218.14L206.936 225.789H213.03ZM248.005 257.369L255.146 225.789H261.272L250.1 272H245.72L248.005 257.369ZM236.802 225.789L245.72 258.035L248.958 272H244.546L235.024 238.326L232.422 225.789H236.802ZM297.422 267.017V272H272.952V267.017H297.422ZM274.189 225.789V272H268.064V225.789H274.189ZM294.185 245.657V250.64H272.952V245.657H294.185ZM297.104 225.789V230.804H272.952V225.789H297.104ZM321.479 250.386H309.768L309.705 245.467H320.337C322.093 245.467 323.627 245.171 324.939 244.578C326.251 243.986 327.266 243.139 327.986 242.039C328.726 240.918 329.097 239.585 329.097 238.04C329.097 236.347 328.769 234.972 328.113 233.914C327.478 232.835 326.494 232.052 325.161 231.565C323.849 231.058 322.178 230.804 320.146 230.804H311.133V272H305.007V225.789H320.146C322.516 225.789 324.632 226.032 326.494 226.519C328.356 226.985 329.932 227.725 331.223 228.741C332.535 229.735 333.529 231.005 334.207 232.549C334.884 234.094 335.222 235.945 335.222 238.104C335.222 240.008 334.736 241.732 333.762 243.277C332.789 244.8 331.435 246.049 329.7 247.022C327.986 247.995 325.976 248.619 323.669 248.895L321.479 250.386ZM321.194 272H307.356L310.815 267.017H321.194C323.14 267.017 324.791 266.679 326.145 266.001C327.52 265.324 328.568 264.372 329.287 263.145C330.007 261.897 330.366 260.426 330.366 258.733C330.366 257.02 330.059 255.538 329.446 254.29C328.832 253.042 327.869 252.079 326.558 251.402C325.246 250.725 323.553 250.386 321.479 250.386H312.751L312.815 245.467H324.749L326.05 247.244C328.271 247.435 330.155 248.069 331.699 249.148C333.244 250.206 334.418 251.561 335.222 253.211C336.047 254.861 336.46 256.681 336.46 258.67C336.46 261.548 335.825 263.981 334.556 265.97C333.307 267.938 331.541 269.44 329.255 270.477C326.97 271.492 324.283 272 321.194 272ZM370.134 260.32C370.134 259.241 369.965 258.289 369.626 257.464C369.309 256.618 368.738 255.856 367.913 255.179C367.109 254.502 365.987 253.856 364.548 253.243C363.131 252.629 361.332 252.005 359.153 251.37C356.868 250.693 354.805 249.942 352.964 249.117C351.123 248.27 349.547 247.308 348.235 246.229C346.923 245.149 345.918 243.912 345.22 242.515C344.521 241.119 344.172 239.521 344.172 237.723C344.172 235.924 344.543 234.263 345.283 232.74C346.024 231.216 347.082 229.894 348.457 228.772C349.854 227.63 351.514 226.741 353.44 226.106C355.365 225.472 357.513 225.154 359.883 225.154C363.353 225.154 366.294 225.821 368.706 227.154C371.139 228.466 372.991 230.19 374.26 232.327C375.53 234.443 376.165 236.707 376.165 239.119H370.071C370.071 237.384 369.701 235.85 368.96 234.517C368.219 233.163 367.098 232.105 365.596 231.343C364.093 230.56 362.189 230.169 359.883 230.169C357.703 230.169 355.905 230.497 354.487 231.153C353.07 231.809 352.012 232.697 351.313 233.819C350.636 234.94 350.298 236.22 350.298 237.659C350.298 238.632 350.499 239.521 350.901 240.325C351.324 241.108 351.969 241.838 352.837 242.515C353.726 243.192 354.847 243.816 356.201 244.388C357.576 244.959 359.216 245.509 361.121 246.038C363.744 246.779 366.008 247.604 367.913 248.514C369.817 249.424 371.383 250.45 372.61 251.592C373.858 252.714 374.779 253.994 375.371 255.433C375.985 256.85 376.292 258.458 376.292 260.257C376.292 262.14 375.911 263.843 375.149 265.367C374.387 266.89 373.298 268.191 371.88 269.271C370.462 270.35 368.759 271.185 366.77 271.778C364.802 272.349 362.602 272.635 360.168 272.635C358.031 272.635 355.926 272.339 353.853 271.746C351.8 271.154 349.928 270.265 348.235 269.08C346.563 267.895 345.22 266.435 344.204 264.7C343.21 262.944 342.712 260.913 342.712 258.606H348.806C348.806 260.193 349.113 261.558 349.727 262.701C350.34 263.822 351.176 264.753 352.234 265.494C353.313 266.234 354.53 266.784 355.884 267.144C357.259 267.483 358.687 267.652 360.168 267.652C362.306 267.652 364.115 267.356 365.596 266.763C367.077 266.171 368.198 265.324 368.96 264.224C369.743 263.124 370.134 261.823 370.134 260.32ZM414.282 245.657V250.64H389.272V245.657H414.282ZM390.225 225.789V272H384.099V225.789H390.225ZM419.614 225.789V272H413.521V225.789H419.614ZM466.079 247.435V250.354C466.079 253.825 465.645 256.935 464.778 259.686C463.91 262.436 462.662 264.774 461.033 266.7C459.403 268.625 457.446 270.096 455.161 271.111C452.897 272.127 450.358 272.635 447.544 272.635C444.814 272.635 442.307 272.127 440.022 271.111C437.758 270.096 435.79 268.625 434.119 266.7C432.468 264.774 431.188 262.436 430.278 259.686C429.368 256.935 428.914 253.825 428.914 250.354V247.435C428.914 243.965 429.358 240.865 430.247 238.135C431.156 235.385 432.437 233.047 434.087 231.121C435.737 229.174 437.694 227.693 439.958 226.678C442.244 225.662 444.751 225.154 447.48 225.154C450.295 225.154 452.834 225.662 455.098 226.678C457.383 227.693 459.34 229.174 460.969 231.121C462.62 233.047 463.879 235.385 464.746 238.135C465.635 240.865 466.079 243.965 466.079 247.435ZM460.017 250.354V247.371C460.017 244.62 459.731 242.187 459.16 240.071C458.61 237.955 457.795 236.178 456.716 234.739C455.637 233.3 454.315 232.211 452.749 231.47C451.204 230.73 449.448 230.359 447.48 230.359C445.576 230.359 443.852 230.73 442.307 231.47C440.784 232.211 439.472 233.3 438.372 234.739C437.292 236.178 436.457 237.955 435.864 240.071C435.272 242.187 434.976 244.62 434.976 247.371V250.354C434.976 253.126 435.272 255.581 435.864 257.718C436.457 259.834 437.303 261.622 438.403 263.082C439.525 264.52 440.847 265.61 442.371 266.351C443.915 267.091 445.64 267.461 447.544 267.461C449.533 267.461 451.3 267.091 452.844 266.351C454.389 265.61 455.69 264.52 456.748 263.082C457.827 261.622 458.642 259.834 459.192 257.718C459.742 255.581 460.017 253.126 460.017 250.354ZM492.295 253.877H479.949V248.895H492.295C494.686 248.895 496.622 248.514 498.103 247.752C499.584 246.99 500.663 245.932 501.34 244.578C502.039 243.224 502.388 241.679 502.388 239.944C502.388 238.357 502.039 236.866 501.34 235.469C500.663 234.073 499.584 232.951 498.103 232.105C496.622 231.237 494.686 230.804 492.295 230.804H481.377V272H475.251V225.789H492.295C495.786 225.789 498.738 226.392 501.15 227.598C503.562 228.804 505.392 230.476 506.641 232.613C507.889 234.729 508.513 237.151 508.513 239.881C508.513 242.843 507.889 245.372 506.641 247.466C505.392 249.561 503.562 251.159 501.15 252.259C498.738 253.338 495.786 253.877 492.295 253.877Z" fill="white"/>
<path d="M609.435 234.545C609.298 234.343 609.112 234.178 608.896 234.066C608.679 233.954 608.437 233.897 608.193 233.901H565.873C565.459 229.715 565.091 226.541 565.091 226.449C565.046 226.055 564.856 225.691 564.559 225.428C564.262 225.165 563.878 225.02 563.481 225.023H558.881C558.65 224.984 558.413 224.995 558.187 225.057C557.961 225.118 557.751 225.228 557.572 225.379C557.393 225.531 557.249 225.719 557.15 225.932C557.051 226.144 557 226.376 557 226.61C557 226.844 557.051 227.076 557.15 227.288C557.249 227.501 557.393 227.689 557.572 227.841C557.751 227.992 557.961 228.102 558.187 228.163C558.413 228.225 558.65 228.236 558.881 228.197H562.147C562.699 233.671 564.585 252.393 565.045 255.797C565.505 259.201 566.517 262.283 570.979 263.019C570.195 263.571 569.553 264.3 569.106 265.148C568.658 265.995 568.417 266.937 568.403 267.895C568.403 269.518 569.048 271.074 570.195 272.221C571.342 273.368 572.899 274.013 574.521 274.013C576.144 274.013 577.7 273.368 578.847 272.221C579.995 271.074 580.639 269.518 580.639 267.895C580.643 266.294 580.015 264.757 578.891 263.617L584.779 264.077L590.621 264.583C589.957 265.545 589.589 266.68 589.563 267.849C589.563 269.472 590.208 271.028 591.355 272.175C592.502 273.322 594.059 273.967 595.681 273.967C597.304 273.967 598.86 273.322 600.007 272.175C601.155 271.028 601.799 269.472 601.799 267.849C601.786 266.509 601.327 265.211 600.494 264.162C599.66 263.112 598.501 262.37 597.199 262.053C596.971 261.88 596.701 261.769 596.417 261.731C594.439 261.731 589.701 261.271 584.917 260.857C580.133 260.443 574.567 260.029 572.405 259.937C569.415 259.937 568.495 258.833 567.805 255.337L603.777 254.417C604.128 254.417 604.468 254.298 604.743 254.082C605.018 253.865 605.213 253.562 605.295 253.221L609.895 235.741C609.904 235.521 609.868 235.301 609.789 235.095C609.71 234.89 609.59 234.702 609.435 234.545V234.545ZM595.635 270.701C594.867 270.701 594.129 270.396 593.586 269.852C593.042 269.309 592.737 268.572 592.737 267.803C592.737 267.038 593.034 266.303 593.567 265.753C594.099 265.204 594.824 264.883 595.589 264.859V264.859C596.301 264.948 596.955 265.295 597.43 265.832C597.904 266.37 598.166 267.063 598.166 267.78C598.166 268.497 597.904 269.19 597.43 269.728C596.955 270.265 596.301 270.612 595.589 270.701H595.635ZM574.291 270.701C573.705 270.71 573.13 270.544 572.638 270.224C572.147 269.904 571.763 269.445 571.534 268.905C571.306 268.365 571.244 267.77 571.356 267.194C571.468 266.619 571.749 266.09 572.164 265.676C572.578 265.261 573.107 264.98 573.682 264.868C574.258 264.756 574.853 264.818 575.393 265.046C575.933 265.275 576.392 265.659 576.712 266.15C577.032 266.641 577.198 267.217 577.189 267.803C577.189 268.184 577.114 268.56 576.969 268.912C576.823 269.264 576.609 269.583 576.34 269.852C576.071 270.121 575.752 270.335 575.4 270.48C575.049 270.626 574.672 270.701 574.291 270.701ZM602.351 251.381L567.621 252.071C567.621 250.415 567.207 248.391 566.977 246.183H579.857C580.313 246.171 580.746 245.982 581.064 245.655C581.381 245.329 581.559 244.891 581.559 244.435C581.559 243.984 581.38 243.551 581.061 243.231C580.741 242.912 580.309 242.733 579.857 242.733H566.747L566.195 237.121H606.123L602.351 251.381Z" fill="white"/>
<defs>
<clipPath id="clip0_242_22">
<rect width="687" height="212" fill="white"/>
</clipPath>
</defs>
</svg>
