<svg xmlns="http://www.w3.org/2000/svg" viewBox="0 0 118.44 32.82">
    <defs>
        <style>.cls-1{fill:url(#linear-gradient);}.cls-2{fill:#fff;}.cls-3{fill:#7fc9ef;}</style>
        <linearGradient id="linear-gradient" y1="51.98" x2="469.52" y2="51.98" gradientUnits="userSpaceOnUse">
            <stop offset="0.09" stop-color="#3456a5"/><stop offset="1" stop-color="#3d63bf"/>
        </linearGradient>
    </defs>
    <g id="Layer_2" data-name="Layer 2">
        <g id="Layer_1-2" data-name="Layer 1">
        <path class="cls-1" d="M23.76,0h94.68a0,0,0,0,1,0,0V9.06A23.76,23.76,0,0,1,94.68,32.82H0a0,0,0,0,1,0,0V23.76A23.76,23.76,0,0,1,23.76,0Z"/>
        <path class="cls-2" d="M37.38,7a1.37,1.37,0,0,1,.24.47,2.35,2.35,0,0,1,.1.67c0,.87-.37,1.31-1.12,1.31H29.5v5.07h6.91a1.72,1.72,0,0,1,.23.49,2,2,0,0,1,.1.68c0,.86-.36,1.29-1.09,1.29H29.52v6.91A4.48,4.48,0,0,1,29,24a4.07,4.07,0,0,1-.79.07c-1.1,0-1.65-.45-1.65-1.36V8.58A1.53,1.53,0,0,1,27,7.42,1.59,1.59,0,0,1,28.13,7Z"/>
        <path class="cls-2" d="M41.93,24.07a2,2,0,0,1-1.2-.3,1.24,1.24,0,0,1-.39-1V5.82a5.59,5.59,0,0,1,.56-.14,3.19,3.19,0,0,1,.77-.09,2,2,0,0,1,1.2.31,1.24,1.24,0,0,1,.39,1V23.85a2.9,2.9,0,0,1-.57.15A3.57,3.57,0,0,1,41.93,24.07Z"/>
        <path class="cls-2" d="M51.6,10.47a6.8,6.8,0,0,1,4.12,1.13,4.12,4.12,0,0,1,1.53,3.55v6.5a1.46,1.46,0,0,1-.29,1,3.12,3.12,0,0,1-.79.65A8.19,8.19,0,0,1,54.3,24a10.45,10.45,0,0,1-2.65.3,7.33,7.33,0,0,1-4.22-1.05,3.58,3.58,0,0,1-1.52-3.13,3.41,3.41,0,0,1,1.19-2.81,6.26,6.26,0,0,1,3.41-1.2l3.87-.39v-.61a2,2,0,0,0-.79-1.79,3.83,3.83,0,0,0-2.22-.56,7.58,7.58,0,0,0-2.14.31,12.9,12.9,0,0,0-1.84.7,2.07,2.07,0,0,1-.48-.54,1.36,1.36,0,0,1-.19-.72,1.25,1.25,0,0,1,.24-.78,1.87,1.87,0,0,1,.73-.53,6.6,6.6,0,0,1,1.79-.57A12,12,0,0,1,51.6,10.47Zm0,11.57a6.55,6.55,0,0,0,1.7-.2,3.25,3.25,0,0,0,1-.42V17.89l-3,.3a4.42,4.42,0,0,0-1.93.57,1.49,1.49,0,0,0-.64,1.33,1.66,1.66,0,0,0,.7,1.43A3.61,3.61,0,0,0,51.65,22Z"/>
        <path class="cls-2" d="M70.19,20.31a3.49,3.49,0,0,1-1.4,2.93,6.6,6.6,0,0,1-4,1.06,11.3,11.3,0,0,1-2-.17,6.58,6.58,0,0,1-1.58-.47,3.1,3.1,0,0,1-1-.73,1.34,1.34,0,0,1-.37-.92,1.52,1.52,0,0,1,.21-.78,1.59,1.59,0,0,1,.57-.58,12,12,0,0,0,1.79.92A6.23,6.23,0,0,0,64.7,22a3.5,3.5,0,0,0,1.92-.43,1.38,1.38,0,0,0,.67-1.24,1.41,1.41,0,0,0-.46-1.11,3,3,0,0,0-1.35-.64l-1.9-.51a6.27,6.27,0,0,1-2.78-1.36,3.14,3.14,0,0,1-.9-2.37,3.56,3.56,0,0,1,.34-1.52,3.41,3.41,0,0,1,1-1.23,5.07,5.07,0,0,1,1.63-.81,7.93,7.93,0,0,1,2.23-.29,9.27,9.27,0,0,1,1.82.16,7,7,0,0,1,1.43.41,2.58,2.58,0,0,1,.93.66,1.27,1.27,0,0,1,.33.83,1.44,1.44,0,0,1-.19.77,1.66,1.66,0,0,1-.5.52,8.24,8.24,0,0,0-1.5-.67,6.15,6.15,0,0,0-2.13-.37,3.56,3.56,0,0,0-1.84.41,1.26,1.26,0,0,0-.67,1.13,1.23,1.23,0,0,0,.38.92,2.77,2.77,0,0,0,1.3.58l1.61.42a7.19,7.19,0,0,1,3.13,1.51A3.34,3.34,0,0,1,70.19,20.31Z"/>
        <path class="cls-2" d="M76.24,21.51a2.78,2.78,0,0,0,1.64.42,4.15,4.15,0,0,0,1-.14,4.56,4.56,0,0,0,.91-.34,2.7,2.7,0,0,1,.35.51,1.34,1.34,0,0,1,.16.66,1.39,1.39,0,0,1-.74,1.2,4.21,4.21,0,0,1-2.25.48A5.44,5.44,0,0,1,74,23.36a3.62,3.62,0,0,1-1.24-3.08v-13c.13,0,.32-.09.56-.14A3.21,3.21,0,0,1,74.09,7a1.93,1.93,0,0,1,1.19.31,1.26,1.26,0,0,1,.37,1v2.76H80a1.6,1.6,0,0,1,.21.47,2,2,0,0,1,.1.65c0,.79-.35,1.19-1,1.19h-3.6v6.64A1.63,1.63,0,0,0,76.24,21.51Z"/>
        <path class="cls-3" d="M89,17.38l-4.71,6.67-.29,0h-.32a2,2,0,0,1-1.29-.36,1.21,1.21,0,0,1-.44-1,1.83,1.83,0,0,1,.21-.87,4.93,4.93,0,0,1,.6-.88l4.34-5.69L82,8.24a2.25,2.25,0,0,1,.61-1,1.65,1.65,0,0,1,1.17-.43,1.58,1.58,0,0,1,.95.29,4,4,0,0,1,.81.91l3.56,5.21,4.49-6.3a2.39,2.39,0,0,1,.36,0l.45,0a1.72,1.72,0,0,1,1.18.36,1.19,1.19,0,0,1,.41.92,1.7,1.7,0,0,1-.22.81,7.87,7.87,0,0,1-.59.86c-.69.91-1.39,1.82-2.09,2.72s-1.43,1.83-2.18,2.77l5.36,7.42a1.78,1.78,0,0,1-.59,1,1.72,1.72,0,0,1-1.17.38,1.62,1.62,0,0,1-.91-.26,3.4,3.4,0,0,1-.79-.91Z"/>
        </g>
    </g>
</svg>