<svg xmlns="http://www.w3.org/2000/svg" xmlns:xlink="http://www.w3.org/1999/xlink" viewBox="0 0 512.19 103.95"><defs><style>.cls-1{fill:url(#linear-gradient);}.cls-2{fill:#fff;}.cls-3{fill:#7fc9ef;}</style><linearGradient id="linear-gradient" y1="51.98" x2="512.19" y2="51.98" gradientUnits="userSpaceOnUse"><stop offset="0.09" stop-color="#3456a5"/><stop offset="1" stop-color="#3d63bf"/></linearGradient></defs><g id="Layer_2" data-name="Layer 2"><g id="Layer_1-2" data-name="Layer 1"><path class="cls-1" d="M83,0h429.2a0,0,0,0,1,0,0V21a83,83,0,0,1-83,83H0a0,0,0,0,1,0,0V83A83,83,0,0,1,83,0Z"/><path class="cls-2" d="M82.5,64a10.6,10.6,0,0,1-4.25,8.92Q74,76.12,65.93,76.11a34.23,34.23,0,0,1-6.11-.51A19.77,19.77,0,0,1,55,74.16,9.08,9.08,0,0,1,51.92,72a4.17,4.17,0,0,1-1.11-2.8,4.74,4.74,0,0,1,.64-2.38A4.87,4.87,0,0,1,53.19,65a35.84,35.84,0,0,0,5.44,2.8,18.45,18.45,0,0,0,7.13,1.27,10.84,10.84,0,0,0,5.87-1.31,4.23,4.23,0,0,0,2-3.78,4.35,4.35,0,0,0-1.4-3.4,9.54,9.54,0,0,0-4.12-2l-5.77-1.52q-5.79-1.53-8.5-4.17a9.58,9.58,0,0,1-2.72-7.22,10.76,10.76,0,0,1,1-4.63,10.4,10.4,0,0,1,3-3.74,14.82,14.82,0,0,1,5-2.46A23.77,23.77,0,0,1,67,34a29.76,29.76,0,0,1,5.57.47,19.53,19.53,0,0,1,4.33,1.27,7.79,7.79,0,0,1,2.85,2,3.84,3.84,0,0,1,1,2.54,4.38,4.38,0,0,1-.6,2.34,4.79,4.79,0,0,1-1.53,1.57,27.35,27.35,0,0,0-4.54-2,18.91,18.91,0,0,0-6.5-1.1,10.86,10.86,0,0,0-5.61,1.23,3.83,3.83,0,0,0-2,3.44,3.73,3.73,0,0,0,1.15,2.8,8.61,8.61,0,0,0,4,1.79l4.93,1.27q6.45,1.71,9.51,4.59A10.24,10.24,0,0,1,82.5,64Z"/><path class="cls-2" d="M89.64,22.93a4.93,4.93,0,0,1,1.52-3.69,5.4,5.4,0,0,1,3.91-1.49,5.19,5.19,0,1,1,0,10.37,5.4,5.4,0,0,1-3.91-1.49A4.93,4.93,0,0,1,89.64,22.93Zm9.85,51.82a8.64,8.64,0,0,1-1.66.47,12.53,12.53,0,0,1-2.42.21,5.89,5.89,0,0,1-3.65-.93,3.77,3.77,0,0,1-1.19-3.14V35.42L92.31,35a10.44,10.44,0,0,1,2.42-.26,5.63,5.63,0,0,1,3.61.94,3.94,3.94,0,0,1,1.15,3.23Z"/><path class="cls-2" d="M134.53,43.07a9.58,9.58,0,0,0-6.33-2,17.05,17.05,0,0,0-5.31.77,24.07,24.07,0,0,0-4,1.7V74.75a8.64,8.64,0,0,1-1.66.47,12.08,12.08,0,0,1-2.33.21,5.92,5.92,0,0,1-3.66-.93A3.77,3.77,0,0,1,110,71.36v-28a5.72,5.72,0,0,1,.77-3.14,8.73,8.73,0,0,1,2.55-2.38,28.11,28.11,0,0,1,6.2-2.63A28.88,28.88,0,0,1,128.2,34q8.25,0,12.92,3.69t4.67,11.18v25.9a8.74,8.74,0,0,1-1.7.47,12.78,12.78,0,0,1-2.38.21,5.89,5.89,0,0,1-3.65-.93,3.74,3.74,0,0,1-1.19-3.14V49.18Q136.87,45,134.53,43.07Z"/><path class="cls-2" d="M194,55.05a25.21,25.21,0,0,1-1.44,8.75,19.09,19.09,0,0,1-4,6.62,17.53,17.53,0,0,1-6.33,4.21,24.15,24.15,0,0,1-16.65,0,17.53,17.53,0,0,1-6.33-4.21,18.93,18.93,0,0,1-4-6.62,25,25,0,0,1-1.45-8.75,24.9,24.9,0,0,1,1.45-8.75,18.67,18.67,0,0,1,4.07-6.63,18.17,18.17,0,0,1,6.38-4.21,23.68,23.68,0,0,1,16.48,0,17.91,17.91,0,0,1,6.37,4.25,19.39,19.39,0,0,1,4.08,6.63A24.82,24.82,0,0,1,194,55.05ZM173.91,41.11a9.87,9.87,0,0,0-8.08,3.66q-3,3.65-3,10.28c0,4.41,1,7.83,2.89,10.23a11,11,0,0,0,16.31,0C184,62.88,185,59.46,185,55.05s-1-7.78-2.93-10.24A9.79,9.79,0,0,0,173.91,41.11Z"/><path class="cls-3" d="M219.86,34a20,20,0,0,1,4.8.55,19.35,19.35,0,0,1,4,1.4V19.79c.4-.11,1-.25,1.7-.42a10.59,10.59,0,0,1,2.38-.26,5.82,5.82,0,0,1,3.65.94,3.74,3.74,0,0,1,1.19,3.14V67.7a5.16,5.16,0,0,1-.76,2.93,7.71,7.71,0,0,1-2.38,2.17,20.62,20.62,0,0,1-5.31,2.29,26.48,26.48,0,0,1-7.69,1,29.87,29.87,0,0,1-8.83-1.23,16.65,16.65,0,0,1-11.13-10.36,25.75,25.75,0,0,1-1.53-9.3,26.27,26.27,0,0,1,1.57-9.56A18.12,18.12,0,0,1,205.76,39a17.06,17.06,0,0,1,6.33-3.82A24,24,0,0,1,219.86,34Zm8.84,9.43a16.53,16.53,0,0,0-3.4-1.62,13.2,13.2,0,0,0-4.33-.68,14.12,14.12,0,0,0-4.72.77,9.38,9.38,0,0,0-3.78,2.5,12.76,12.76,0,0,0-2.55,4.42,19.94,19.94,0,0,0-.93,6.5q0,7.14,3.36,10.36a12.33,12.33,0,0,0,9,3.23,14.29,14.29,0,0,0,4.29-.55A16.71,16.71,0,0,0,228.7,67Z"/><path class="cls-3" d="M256.65,74.75a8.64,8.64,0,0,1-1.66.47,12.08,12.08,0,0,1-2.33.21A5.9,5.9,0,0,1,249,74.5a3.77,3.77,0,0,1-1.19-3.14V43.49a6.33,6.33,0,0,1,.85-3.44,8.67,8.67,0,0,1,2.72-2.5A23.35,23.35,0,0,1,257.67,35a32.58,32.58,0,0,1,8.41-1c5,0,7.47,1.41,7.47,4.25a5.26,5.26,0,0,1-.34,1.91,8.82,8.82,0,0,1-.76,1.57c-.57-.11-1.28-.23-2.13-.34a21,21,0,0,0-2.71-.17,25,25,0,0,0-6.21.72,19.46,19.46,0,0,0-4.75,1.83Z"/><path class="cls-3" d="M285.19,59.55a11.61,11.61,0,0,0,4.63,7.18,15.33,15.33,0,0,0,8.79,2.33,18.64,18.64,0,0,0,6.55-1.1,20.71,20.71,0,0,0,4.75-2.38,4.21,4.21,0,0,1,2.38,3.82,4,4,0,0,1-1.1,2.68,9.16,9.16,0,0,1-3,2.12,19.24,19.24,0,0,1-4.5,1.4,28.83,28.83,0,0,1-5.57.51,27.85,27.85,0,0,1-9-1.36,18.5,18.5,0,0,1-6.92-4.07A18.2,18.2,0,0,1,277.76,64a25.16,25.16,0,0,1-1.57-9.26,24.29,24.29,0,0,1,1.53-9,18.42,18.42,0,0,1,4.16-6.45,17.54,17.54,0,0,1,6.2-3.95A21.24,21.24,0,0,1,295.73,34a20.38,20.38,0,0,1,7.43,1.31A17.38,17.38,0,0,1,308.94,39a16.16,16.16,0,0,1,3.73,5.56A18.47,18.47,0,0,1,314,51.56a4.12,4.12,0,0,1-1,3.1A5.47,5.47,0,0,1,310,56Zm10.54-18.69A10.5,10.5,0,0,0,288,44q-3.09,3.15-3.27,9l20.9-3a10.73,10.73,0,0,0-2.8-6.49A9.11,9.11,0,0,0,295.73,40.86Z"/><path class="cls-3" d="M336.25,34q7.89,0,12.57,3.44t4.67,10.83V68a4.59,4.59,0,0,1-.89,3,9.81,9.81,0,0,1-2.42,2,24.15,24.15,0,0,1-5.69,2.2,31.06,31.06,0,0,1-8.07.94q-8.25,0-12.87-3.23t-4.63-9.51q0-5.61,3.61-8.58c2.4-2,5.87-3.2,10.4-3.66L344.74,50V48.16q0-3.73-2.42-5.43a11.61,11.61,0,0,0-6.75-1.7A22.87,22.87,0,0,0,329,42a37.23,37.23,0,0,0-5.61,2.13A6.45,6.45,0,0,1,322,42.43a4.13,4.13,0,0,1-.59-2.17,3.76,3.76,0,0,1,.72-2.37,5.69,5.69,0,0,1,2.25-1.62,20.31,20.31,0,0,1,5.44-1.74A36.15,36.15,0,0,1,336.25,34Zm.17,35.25a19.9,19.9,0,0,0,5.18-.59,10,10,0,0,0,3.14-1.28V56.57l-9.26.94a13.13,13.13,0,0,0-5.86,1.74,4.54,4.54,0,0,0-1.95,4,5.11,5.11,0,0,0,2.12,4.37C331.21,68.71,333.41,69.23,336.42,69.23Z"/><path class="cls-3" d="M410.62,42.86A8.54,8.54,0,0,0,405,41.11a11.68,11.68,0,0,0-4.54.9,14.18,14.18,0,0,0-3.95,2.42,12,12,0,0,1,.25,1.44,13.08,13.08,0,0,1,.09,1.53V74.75a8.74,8.74,0,0,1-1.7.47,12.3,12.3,0,0,1-2.3.21,5.89,5.89,0,0,1-3.65-.93A3.77,3.77,0,0,1,388,71.36v-23q0-3.73-2.12-5.47a8.73,8.73,0,0,0-5.69-1.75,13.23,13.23,0,0,0-4.51.77,18,18,0,0,0-3.57,1.7V74.75a8.3,8.3,0,0,1-1.65.47,12.12,12.12,0,0,1-2.34.21,5.89,5.89,0,0,1-3.65-.93,3.77,3.77,0,0,1-1.19-3.14v-28a5.81,5.81,0,0,1,.76-3.14,8.73,8.73,0,0,1,2.55-2.38,23.89,23.89,0,0,1,6.2-2.72,26.85,26.85,0,0,1,7.56-1.1,22,22,0,0,1,7.18,1.1,13.09,13.09,0,0,1,5.23,3.23,21.17,21.17,0,0,1,5.65-3.1A21.52,21.52,0,0,1,406,34a22.83,22.83,0,0,1,6.2.81,13,13,0,0,1,5,2.54,12.1,12.1,0,0,1,3.27,4.38A15.21,15.21,0,0,1,421.62,48V74.75a11.09,11.09,0,0,1-1.74.47,12.12,12.12,0,0,1-2.34.21,5.89,5.89,0,0,1-3.65-.93,3.77,3.77,0,0,1-1.19-3.14v-23Q412.7,44.6,410.62,42.86Z"/><path class="cls-3" d="M461.38,64a10.6,10.6,0,0,1-4.25,8.92q-4.25,3.23-12.32,3.22a34.15,34.15,0,0,1-6.11-.51,19.77,19.77,0,0,1-4.8-1.44A9.08,9.08,0,0,1,430.8,72a4.17,4.17,0,0,1-1.11-2.8,4.65,4.65,0,0,1,.64-2.38A4.87,4.87,0,0,1,432.07,65a35.84,35.84,0,0,0,5.44,2.8,18.41,18.41,0,0,0,7.13,1.27,10.78,10.78,0,0,0,5.86-1.31,4.24,4.24,0,0,0,2-3.78,4.35,4.35,0,0,0-1.4-3.4,9.54,9.54,0,0,0-4.12-2l-5.77-1.52q-5.79-1.53-8.5-4.17A9.58,9.58,0,0,1,430,45.7a10.76,10.76,0,0,1,1-4.63,10.4,10.4,0,0,1,3-3.74,14.82,14.82,0,0,1,5-2.46,23.77,23.77,0,0,1,6.79-.89,29.76,29.76,0,0,1,5.57.47,19.53,19.53,0,0,1,4.33,1.27,7.79,7.79,0,0,1,2.85,2,3.87,3.87,0,0,1,1,2.54A4.38,4.38,0,0,1,459,42.6a4.79,4.79,0,0,1-1.53,1.57,27.35,27.35,0,0,0-4.54-2,18.91,18.91,0,0,0-6.5-1.1,10.86,10.86,0,0,0-5.61,1.23,3.83,3.83,0,0,0-2,3.44,3.69,3.69,0,0,0,1.15,2.8,8.61,8.61,0,0,0,3.95,1.79l4.93,1.27q6.45,1.71,9.51,4.59A10.24,10.24,0,0,1,461.38,64Z"/></g></g></svg>